<?xml version="1.0" encoding="utf-8"?>
<!-- Generator: Adobe Illustrator 18.1.1, SVG Export Plug-In . SVG Version: 6.00 Build 0)  -->
<!DOCTYPE svg PUBLIC "-//W3C//DTD SVG 1.1//EN" "http://www.w3.org/Graphics/SVG/1.1/DTD/svg11.dtd">
<svg version="1.1" xmlns="http://www.w3.org/2000/svg" xmlns:xlink="http://www.w3.org/1999/xlink" x="0px" y="0px"
	 viewBox="0 0 65 65" enable-background="new 0 0 65 65" xml:space="preserve">
<g id="Layer_1">
</g>
<g id="behance">
	<g>
		<g>
			<path fill="#FFFFFF" d="M27.1,30.6c0,0,5.3-0.4,5.3-6.6c0-6.2-4.3-9.3-9.8-9.3H12.5h-0.3H4.5v34.7h7.7h0.3h10.1
				c0,0,11,0.3,11-10.3C33.6,39.2,34.1,30.6,27.1,30.6z M12.5,20.9h8.8h1.3c0,0,2.5,0,2.5,3.6s-1.4,4.1-3.1,4.1h-9.5V20.9z
				 M22.1,43.3h-9.6V34h10.1c0,0,3.7,0,3.7,4.8C26.2,42.8,23.6,43.3,22.1,43.3z"/>
			<g>
				<path fill="#FFFFFF" d="M48.3,23.6C35,23.6,35,36.9,35,36.9s-0.9,13.3,13.3,13.3c0,0,11.9,0.7,11.9-9.2h-6.1
					c0,0,0.2,3.7-5.6,3.7c0,0-6.1,0.4-6.1-6h18C60.4,38.7,62.4,23.6,48.3,23.6z M53.8,34H42.3c0,0,0.7-5.4,6.1-5.4
					C53.8,28.7,53.8,34,53.8,34z"/>
				<rect x="40.8" y="16.8" fill="#FFFFFF" width="14.3" height="4.3"/>
			</g>
		</g>
	</g>
</g>
</svg>
