<?xml version="1.0" encoding="utf-8"?>
<!-- Generator: Adobe Illustrator 18.1.1, SVG Export Plug-In . SVG Version: 6.00 Build 0)  -->
<!DOCTYPE svg PUBLIC "-//W3C//DTD SVG 1.1//EN" "http://www.w3.org/Graphics/SVG/1.1/DTD/svg11.dtd">
<svg version="1.1" xmlns="http://www.w3.org/2000/svg" xmlns:xlink="http://www.w3.org/1999/xlink" x="0px" y="0px"
	 viewBox="0 0 105 105" enable-background="new 0 0 105 105" xml:space="preserve">
<g id="Layer_1">
	<linearGradient id="SVGID_1_" gradientUnits="userSpaceOnUse" x1="52.5" y1="8.0987" x2="52.5" y2="101.1424">
		<stop  offset="0" style="stop-color:#6061B1"/>
		<stop  offset="0.9898" style="stop-color:#222373"/>
	</linearGradient>
	<circle fill="url(#SVGID_1_)" cx="52.5" cy="52.5" r="52.5"/>
</g>
<g id="behance">
	<g>
		<g>
			<path fill="#FFFFFF" d="M46,48.6c0,0,7.4-0.5,7.4-9.2c0-8.6-6-12.9-13.7-12.9H25.6h-0.4H14.6v48.3h10.7h0.4h14.1
				c0,0,15.3,0.5,15.3-14.2C55,60.6,55.7,48.6,46,48.6z M25.6,35.2h12.2h1.8c0,0,3.4,0,3.4,5s-2,5.8-4.3,5.8H25.6V35.2z M39.1,66.3
				H25.6V53.4h14.1c0,0,5.1-0.1,5.1,6.6C44.8,65.6,41.1,66.2,39.1,66.3z"/>
			<g>
				<path fill="#FFFFFF" d="M75.5,38.9c-18.6,0-18.5,18.5-18.5,18.5s-1.3,18.5,18.5,18.5c0,0,16.5,0.9,16.5-12.8h-8.5
					c0,0,0.3,5.2-7.7,5.2c0,0-8.5,0.6-8.5-8.4h25C92.3,59.8,95,38.9,75.5,38.9z M83,53.4H67.2c0,0,1-7.4,8.5-7.4
					C83.1,46,83,53.4,83,53.4z"/>
				<rect x="65.1" y="29.5" fill="#FFFFFF" width="19.9" height="5.9"/>
			</g>
		</g>
	</g>
	<g>
	</g>
	<g>
	</g>
	<g>
	</g>
	<g>
	</g>
	<g>
	</g>
	<g>
	</g>
	<g>
	</g>
	<g>
	</g>
	<g>
	</g>
	<g>
	</g>
	<g>
	</g>
	<g>
	</g>
	<g>
	</g>
	<g>
	</g>
	<g>
	</g>
</g>
</svg>
