<svg xmlns="http://www.w3.org/2000/svg" viewBox="0 0 1173.3 143" enable-background="new 0 0 1173.3 143"><pattern y="-221.3" width="114.4" height="114.4" patternUnits="userSpaceOnUse" id="a" viewBox="0 -114.4 114.4 114.4" overflow="visible"><path fill="none" d="M0-114.4h114.4v114.4h-114.4zM.1-57.9l57.8 57.7h6.8l-64.6-64.5zM.1-49.7l49.6 49.5h6.8l-56.4-56.3zM25.2-114.2l88.9 89v-6.8l-82.1-82.2zM.1-41.6l41.5 41.4h6.7l-48.2-48.1zM49.7-114.2l64.4 64.5v-6.8l-57.6-57.7zM41.6-114.2l72.5 72.6v-6.7l-65.8-65.9zM.1-33.4l33.3 33.2h6.8l-40.1-40zM33.4-114.2l80.7 80.8v-6.8l-73.9-74zM.7-114.2l113.4 113.5v-6.8l-106.6-106.7zM8.9-114.2l105.2 105.3v-6.7l-98.5-98.6zM57.9-114.2l56.2 56.3v-6.8l-49.4-49.5zM17.1-114.2l97 97.1v-6.7l-90.3-90.4zM.1-107l106.9 106.8h6.7l-113.6-113.5zM.1-98.8l98.7 98.6h6.8l-105.5-105.4zM.1-74.3l74.2 74.1h6.7l-80.9-80.8zM.1-66.1l66 65.9h6.8l-72.8-72.7zM.1-82.4l82.3 82.2h6.8l-89.1-89zM.1-90.6l90.5 90.4h6.8l-97.3-97.2zM.1-25.2l25.1 25h6.8l-31.9-31.8zM90.6-114.2l23.5 23.6v-6.8l-16.7-16.8zM82.4-114.2l31.7 31.8v-6.8l-24.9-25zM.1-8.9l8.8 8.7h6.7l-15.5-15.4zM.1-17.1l17 16.9h6.7l-23.7-23.6zM107-114.2l7.1 7.2v-6.7l-.4-.5zM98.8-114.2l15.3 15.4v-6.8l-8.5-8.6zM.1-.7l.6.5h6.8l-7.4-7.3zM74.3-114.2l39.8 39.9v-6.7l-33.1-33.2zM66.1-114.2l48 48.1v-6.8l-41.2-41.3z"/><path fill="#ff0" d="M114.4-113.7v-.7h-.7z"/><path fill="#fff" d="M105.6-114.2l8.5 8.6v-1.4l-7.1-7.2zM97.4-114.2l16.7 16.8v-1.4l-15.3-15.4zM89.2-114.2l24.9 25v-1.4l-23.5-23.6zM81-114.2l33.1 33.2v-1.4l-31.7-31.8zM72.9-114.2l41.2 41.3v-1.4l-39.8-39.9zM64.7-114.2l49.4 49.5v-1.4l-48-48.1zM56.5-114.2l57.6 57.7v-1.4l-56.2-56.3zM48.3-114.2l65.8 65.9v-1.4l-64.4-64.5zM40.2-114.2l73.9 74v-1.4l-72.5-72.6zM32-114.2l82.1 82.2v-1.4l-80.7-80.8zM23.8-114.2l90.3 90.4v-1.4l-88.9-89zM15.6-114.2l98.5 98.6v-1.5l-97-97.1zM7.5-114.2l106.6 106.7v-1.4l-105.2-105.3zM.1-114.2v.5l113.6 113.5h.4v-.5l-113.4-113.5zM.1-105.6l105.5 105.4h1.4l-106.9-106.8zM.1-97.4l97.3 97.2h1.4l-98.7-98.6zM.1-89.2l89.1 89h1.4l-90.5-90.4zM.1-81l80.9 80.8h1.4l-82.3-82.2zM.1-72.9l72.8 72.7h1.4l-74.2-74.1zM.1-64.7l64.6 64.5h1.4l-66-65.9zM.1-56.5l56.4 56.3h1.4l-57.8-57.7zM.1-48.3l48.2 48.1h1.4l-49.6-49.5zM.1-40.2l40.1 40h1.4l-41.5-41.4zM.1-32l31.9 31.8h1.4l-33.3-33.2zM.1-23.8l23.7 23.6h1.4l-25.1-25zM.1-15.6l15.5 15.4h1.5l-17-16.9zM.1-7.5l7.4 7.3h1.4l-8.8-8.7z"/><path fill="#ff0" d="M0 0h.7l-.7-.7z"/></pattern><g fill="#4CA8CE"><path d="M58.5 74.2v-34.8h18.1v64.6h-18.1v-8.5c-4.5 6.3-10.3 9.5-17.3 9.5-7.1 0-13-2.2-17.8-6.7-4.8-4.4-7.2-11-7.2-19.7v-39.2h18.1v35.2c0 9.9 3.6 14.9 10.9 14.9 3.6 0 6.7-1.3 9.4-3.9 2.6-2.7 3.9-6.5 3.9-11.4zM111.7 67.9v36h-18v-64.5h18v7.2c5.4-5.5 11.6-8.3 18.4-8.3 6.8 0 12.5 2.4 17.1 7.2 4.6 4.8 6.9 11.2 6.9 19.2v39.2h-18v-36.5c0-9.9-3.6-14.9-10.9-14.9-3.6 0-6.7 1.3-9.4 3.9-2.8 2.7-4.1 6.5-4.1 11.5zM196.2 104.9c-7.6 0-14.5-3.2-20.5-9.7s-9-14.5-9-24.1c0-9.6 2.9-17.5 8.8-23.6 5.8-6.1 12.7-9.2 20.5-9.2 7.8 0 14.2 2.8 19.2 8.3v-31.7h18v89h-18v-8.5c-5 6.3-11.3 9.5-19 9.5zm-11.3-33.1c0 5.2 1.6 9.5 4.7 12.8 3.1 3.3 6.8 5 10.9 5 4.2 0 7.7-1.7 10.6-5 2.9-3.3 4.4-7.6 4.4-12.8 0-5.2-1.5-9.6-4.4-13.1-2.9-3.5-6.5-5.2-10.7-5.2-4.2 0-7.9 1.8-10.9 5.3-3.1 3.4-4.6 7.8-4.6 13zM306.2 94.6c-7.3 6.9-15.8 10.3-25.6 10.3s-17.9-3-24.3-9.1c-6.4-6-9.6-14.1-9.6-24.3 0-10.2 3.3-18.2 9.8-24.2 6.5-6 14.2-9 23.1-9 8.9 0 16.4 2.7 22.6 8 6.2 5.4 9.3 12.7 9.3 22.1v9.6h-47c.6 3.5 2.4 6.4 5.5 8.6 3.1 2.2 6.6 3.4 10.6 3.4 6.3 0 11.5-2.1 15.6-6.4l10 11zm-17.3-38.3c-2.5-2.1-5.5-3.1-9.1-3.1-3.6 0-6.8 1.1-9.8 3.2-3 2.2-4.7 5.1-5.2 8.8h28.3c-.3-3.9-1.7-6.8-4.2-8.9zM358.4 55.2c-5.4 0-9.4 1.9-12 5.7-2.6 3.8-4 8.8-4 15.1v28h-18v-64.6h18v8.5c2.3-2.6 5.2-4.9 8.7-6.7 3.5-1.8 7-2.8 10.6-2.9l.1 16.9h-3.4zM436.4 88.9c6 0 11.4-3 16.2-9l10.7 12c-8.3 8.6-17.3 13-27 13s-17.9-3.1-24.5-9.2c-6.7-6.1-10-14.1-10-24s3.4-17.9 10.1-24.1c6.8-6.2 14.8-9.3 24.1-9.3 4.6 0 9.3 1 14.1 2.9 4.8 1.9 8.9 4.8 12.5 8.5l-9.4 12.2c-2.1-2.5-4.6-4.4-7.6-5.8-3-1.4-6-2-8.9-2-4.7 0-8.8 1.5-12.2 4.6-3.4 3.1-5.1 7.4-5.1 12.8 0 5.5 1.7 9.7 5.1 12.8 3.4 3.1 7.3 4.6 11.9 4.6zM538.8 71.6c0 9.4-3.2 17.2-9.7 23.6-6.5 6.4-14.6 9.6-24.4 9.6-9.8 0-17.9-3.2-24.4-9.6-6.5-6.4-9.7-14.3-9.7-23.6 0-9.4 3.2-17.3 9.7-23.7 6.5-6.4 14.6-9.7 24.4-9.7 9.8 0 17.9 3.2 24.4 9.7 6.4 6.5 9.7 14.4 9.7 23.7zm-50.2 0c0 5.3 1.5 9.6 4.5 12.9 3 3.3 6.8 5 11.5 5s8.5-1.7 11.5-5 4.5-7.6 4.5-12.9c0-5.3-1.5-9.6-4.5-13-3-3.4-6.8-5-11.5-5s-8.5 1.7-11.5 5c-3 3.4-4.5 7.8-4.5 13zM570.1 67.9v36h-18v-64.5h18v7.2c5.4-5.5 11.6-8.3 18.4-8.3 6.8 0 12.5 2.4 17.1 7.2 4.6 4.8 6.9 11.2 6.9 19.2v39.2h-18v-36.5c0-9.9-3.6-14.9-10.9-14.9-3.6 0-6.7 1.3-9.4 3.9-2.8 2.7-4.1 6.5-4.1 11.5zM677.3 83.8c0 6.4-2.3 11.5-7 15.3-4.7 3.8-10.6 5.8-17.8 5.8-4.8 0-9.8-.9-15-2.6-5.2-1.7-9.9-4.3-14-7.6l7.9-11.3c6.7 5.2 13.9 7.8 21.5 7.8 2.3 0 4.2-.5 5.5-1.4 1.4-.9 2-2.1 2-3.7 0-1.5-.9-2.9-2.8-4.2-1.9-1.3-4.6-2.5-8.2-3.6-3.6-1.1-6.3-2.1-8.2-2.9-1.9-.8-4-2-6.4-3.5-4.9-3-7.3-7.5-7.3-13.5s2.4-10.8 7.2-14.6c4.8-3.8 11-5.6 18.6-5.6 7.6 0 15.2 2.6 22.8 7.7l-6.7 12c-5.6-3.8-11.2-5.8-16.7-5.8-5.6 0-8.3 1.5-8.3 4.6 0 1.7.9 3 2.6 4 1.8 1 4.7 2.1 8.8 3.4 4.1 1.3 7 2.3 8.7 2.9 1.7.7 3.8 1.7 6.2 3.2 4.4 2.7 6.6 7.3 6.6 13.6zM712.1 52.3v28.9c0 2.5.6 4.4 1.9 5.8 1.3 1.4 2.8 2.1 4.6 2.1 3.4 0 6.2-1.5 8.5-4.6l6.7 12.6c-5.6 5.1-11.5 7.7-17.7 7.7-6.2 0-11.4-2-15.7-6.1-4.3-4.1-6.4-9.6-6.4-16.7v-29.7h-7.6v-13h7.6v-19.3h18.1v19.3h15.6v13h-15.6zM777.4 55.2c-5.4 0-9.4 1.9-12 5.7-2.6 3.8-4 8.8-4 15.1v28h-18v-64.6h18v8.5c2.3-2.6 5.2-4.9 8.7-6.7 3.5-1.8 7-2.8 10.6-2.9l.1 16.9h-3.4zM834.4 74.2v-34.8h18.1v64.6h-18.1v-8.5c-4.5 6.3-10.3 9.5-17.3 9.5s-13-2.2-17.8-6.7c-4.8-4.4-7.2-11-7.2-19.7v-39.2h18.1v35.2c0 9.9 3.6 14.9 10.9 14.9 3.6 0 6.7-1.3 9.4-3.9 2.6-2.7 3.9-6.5 3.9-11.4zM900.5 88.9c6 0 11.4-3 16.2-9l10.7 12c-8.3 8.6-17.3 13-27 13s-17.9-3.1-24.5-9.2c-6.7-6.1-10-14.1-10-24s3.4-17.9 10.1-24.1c6.8-6.2 14.8-9.3 24.1-9.3 4.6 0 9.3 1 14.1 2.9 4.8 1.9 8.9 4.8 12.5 8.5l-9.4 12.2c-2.1-2.5-4.6-4.4-7.6-5.8-3-1.4-6-2-8.9-2-4.7 0-8.8 1.5-12.2 4.6-3.4 3.1-5.1 7.4-5.1 12.8 0 5.5 1.7 9.7 5.1 12.8 3.4 3.1 7.4 4.6 11.9 4.6zM960.9 52.3v28.9c0 2.5.6 4.4 1.9 5.8 1.3 1.4 2.8 2.1 4.6 2.1 3.4 0 6.2-1.5 8.5-4.6l6.7 12.6c-5.6 5.1-11.5 7.7-17.7 7.7-6.2 0-11.4-2-15.7-6.1-4.3-4.1-6.4-9.6-6.4-16.7v-29.7h-7.6v-13h7.6v-19.3h18.1v19.3h15.6v13h-15.6zM993.7 31.1c-2-2-3.1-4.5-3.1-7.5s1-5.5 3.1-7.5c2-2 4.5-3.1 7.5-3.1s5.5 1 7.5 3.1c2 2 3.1 4.5 3.1 7.5s-1 5.5-3.1 7.5c-2 2-4.5 3.1-7.5 3.1-2.9 0-5.4-1-7.5-3.1zm16.5 72.8h-18v-64.5h18v64.5zM1091.8 71.6c0 9.4-3.2 17.2-9.7 23.6-6.5 6.4-14.6 9.6-24.4 9.6-9.8 0-17.9-3.2-24.4-9.6-6.5-6.4-9.7-14.3-9.7-23.6 0-9.4 3.2-17.3 9.7-23.7 6.5-6.4 14.6-9.7 24.4-9.7 9.8 0 17.9 3.2 24.4 9.7 6.5 6.5 9.7 14.4 9.7 23.7zm-50.1 0c0 5.3 1.5 9.6 4.5 12.9 3 3.3 6.8 5 11.5 5s8.5-1.7 11.5-5 4.5-7.6 4.5-12.9c0-5.3-1.5-9.6-4.5-13-3-3.4-6.8-5-11.5-5s-8.5 1.7-11.5 5c-3 3.4-4.5 7.8-4.5 13zM1123.1 67.9v36h-18v-64.5h18v7.2c5.4-5.5 11.6-8.3 18.4-8.3 6.8 0 12.5 2.4 17.1 7.2 4.6 4.8 6.9 11.2 6.9 19.2v39.2h-18v-36.5c0-9.9-3.6-14.9-10.9-14.9-3.6 0-6.7 1.3-9.4 3.9-2.7 2.7-4.1 6.5-4.1 11.5z"/></g><g stroke="#F5C436" stroke-width="3" stroke-miterlimit="10" fill="none"><path d="M53.2 81.7v-34.8h18.1v64.6h-18.1v-8.5c-4.5 6.3-10.3 9.5-17.3 9.5-7.1 0-13-2.2-17.8-6.7s-7.2-11-7.2-19.7v-39.2h18.1v35.2c-.1 9.9 3.6 14.9 10.8 14.9 3.6 0 6.7-1.3 9.4-3.9 2.6-2.6 4-6.4 4-11.4zM106.3 75.5v36h-18v-64.6h18v7.2c5.4-5.5 11.6-8.3 18.4-8.3 6.8 0 12.5 2.4 17.1 7.2 4.6 4.8 6.9 11.2 6.9 19.2v39.2h-18v-36.4c0-9.9-3.6-14.9-10.9-14.9-3.6 0-6.7 1.3-9.4 3.9-2.7 2.6-4.1 6.4-4.1 11.5zM190.9 112.4c-7.6 0-14.5-3.2-20.5-9.7-6-6.5-9-14.5-9-24.1 0-9.6 2.9-17.5 8.8-23.6 5.8-6.1 12.7-9.2 20.5-9.2 7.8 0 14.2 2.8 19.2 8.3v-31.7h18v89h-18v-8.4c-5.1 6.3-11.4 9.4-19 9.4zm-11.4-33.1c0 5.2 1.6 9.5 4.7 12.8 3.1 3.3 6.8 5 10.9 5 4.2 0 7.7-1.7 10.6-5 2.9-3.3 4.4-7.6 4.4-12.8 0-5.2-1.5-9.6-4.4-13.1-2.9-3.5-6.5-5.2-10.7-5.2-4.2 0-7.9 1.8-10.9 5.3-3.1 3.5-4.6 7.8-4.6 13zM300.8 102.1c-7.3 6.9-15.8 10.3-25.6 10.3s-17.9-3-24.3-9.1c-6.4-6-9.6-14.1-9.6-24.3 0-10.2 3.3-18.2 9.8-24.2 6.5-6 14.2-9 23.1-9 8.9 0 16.4 2.7 22.6 8 6.2 5.4 9.3 12.7 9.3 22.1v9.6h-47c.6 3.5 2.4 6.4 5.5 8.6 3.1 2.2 6.6 3.4 10.6 3.4 6.3 0 11.5-2.1 15.6-6.4l10 11zm-17.2-38.3c-2.5-2.1-5.5-3.1-9.1-3.1-3.6 0-6.8 1.1-9.8 3.2-3 2.2-4.7 5.1-5.2 8.8h28.3c-.3-3.8-1.8-6.8-4.2-8.9zM353 62.8c-5.4 0-9.4 1.9-12 5.7-2.6 3.8-4 8.8-4 15.1v28h-18v-64.7h18v8.5c2.3-2.6 5.2-4.9 8.7-6.7 3.5-1.8 7-2.8 10.6-2.9l.1 16.9h-3.4zM431 96.5c6 0 11.4-3 16.2-9l10.7 12c-8.3 8.6-17.3 13-27 13s-17.9-3.1-24.5-9.2c-6.7-6.1-10-14.1-10-24s3.4-17.9 10.1-24.1c6.8-6.2 14.8-9.3 24.1-9.3 4.6 0 9.3 1 14.1 2.9 4.8 1.9 8.9 4.8 12.5 8.5l-9.4 12.2c-2.1-2.5-4.6-4.4-7.6-5.8-3-1.4-6-2-8.9-2-4.7 0-8.8 1.5-12.2 4.6-3.4 3.1-5.1 7.4-5.1 12.8 0 5.5 1.7 9.7 5.1 12.8 3.4 3.1 7.4 4.6 11.9 4.6zM533.4 79.2c0 9.4-3.2 17.2-9.7 23.6-6.5 6.4-14.6 9.6-24.4 9.6-9.8 0-17.9-3.2-24.4-9.6-6.5-6.4-9.7-14.3-9.7-23.6s3.2-17.3 9.7-23.7c6.5-6.4 14.6-9.7 24.4-9.7 9.8 0 17.9 3.2 24.4 9.7 6.5 6.4 9.7 14.3 9.7 23.7zm-50.2 0c0 5.3 1.5 9.6 4.5 12.9 3 3.3 6.8 5 11.5 5s8.5-1.7 11.5-5 4.5-7.6 4.5-12.9-1.5-9.6-4.5-13-6.8-5-11.5-5-8.5 1.7-11.5 5-4.5 7.7-4.5 13zM564.7 75.5v36h-18v-64.6h18v7.2c5.4-5.5 11.6-8.3 18.4-8.3 6.8 0 12.5 2.4 17.1 7.2 4.6 4.8 6.9 11.2 6.9 19.2v39.2h-18v-36.4c0-9.9-3.6-14.9-10.9-14.9-3.6 0-6.7 1.3-9.4 3.9-2.7 2.6-4.1 6.4-4.1 11.5zM672 91.4c0 6.4-2.3 11.5-7 15.3-4.7 3.8-10.6 5.8-17.8 5.8-4.8 0-9.8-.9-15-2.6-5.2-1.7-9.9-4.3-14-7.6l7.8-11.3c6.7 5.2 13.9 7.8 21.5 7.8 2.3 0 4.2-.5 5.5-1.4 1.4-.9 2-2.1 2-3.7 0-1.5-.9-2.9-2.8-4.2-1.9-1.3-4.6-2.5-8.2-3.6-3.6-1.1-6.3-2.1-8.2-2.9-1.9-.8-4-2-6.4-3.5-4.9-3-7.3-7.5-7.3-13.5s2.4-10.8 7.2-14.6c4.8-3.8 11-5.6 18.6-5.6 7.6 0 15.2 2.6 22.8 7.7l-6.7 12c-5.6-3.8-11.2-5.8-16.7-5.8-5.6 0-8.3 1.5-8.3 4.6 0 1.7.9 3 2.6 4 1.8 1 4.7 2.1 8.8 3.4 4.1 1.3 7 2.3 8.7 2.9 1.7.7 3.8 1.7 6.2 3.2 4.5 2.7 6.7 7.2 6.7 13.6zM706.8 59.9v28.9c0 2.5.6 4.4 1.9 5.8 1.3 1.4 2.8 2.1 4.6 2.1 3.4 0 6.2-1.5 8.5-4.6l6.7 12.6c-5.6 5.1-11.5 7.7-17.7 7.7-6.2 0-11.4-2-15.7-6.1-4.3-4.1-6.4-9.6-6.4-16.7v-29.7h-7.6v-13h7.6v-19.3h18.1v19.3h15.6v13h-15.6zM772.1 62.8c-5.4 0-9.4 1.9-12 5.7-2.6 3.8-4 8.8-4 15.1v28h-18v-64.7h18v8.5c2.3-2.6 5.2-4.9 8.7-6.7 3.5-1.8 7-2.8 10.6-2.9l.1 16.9h-3.4zM829.1 81.7v-34.8h18.1v64.6h-18.1v-8.5c-4.5 6.3-10.3 9.5-17.3 9.5s-13-2.2-17.8-6.7-7.2-11-7.2-19.7v-39.2h18.1v35.2c0 9.9 3.6 14.9 10.9 14.9 3.6 0 6.7-1.3 9.4-3.9 2.5-2.6 3.9-6.4 3.9-11.4zM895.2 96.5c6 0 11.4-3 16.2-9l10.7 12c-8.3 8.6-17.3 13-27 13s-17.9-3.1-24.5-9.2c-6.7-6.1-10-14.1-10-24s3.4-17.9 10.1-24.1c6.8-6.2 14.8-9.3 24.1-9.3 4.6 0 9.3 1 14.1 2.9 4.8 1.9 8.9 4.8 12.5 8.5l-9.4 12.2c-2.1-2.5-4.6-4.4-7.6-5.8-3-1.4-6-2-8.9-2-4.7 0-8.8 1.5-12.2 4.6-3.4 3.1-5.1 7.4-5.1 12.8 0 5.5 1.7 9.7 5.1 12.8 3.3 3.1 7.3 4.6 11.9 4.6zM955.5 59.9v28.9c0 2.5.6 4.4 1.9 5.8 1.3 1.4 2.8 2.1 4.6 2.1 3.4 0 6.2-1.5 8.5-4.6l6.7 12.6c-5.6 5.1-11.5 7.7-17.7 7.7-6.2 0-11.4-2-15.7-6.1-4.3-4.1-6.4-9.6-6.4-16.7v-29.7h-7.6v-13h7.6v-19.3h18.1v19.3h15.6v13h-15.6zM988.4 38.7c-2-2-3.1-4.5-3.1-7.5s1-5.5 3.1-7.5c2-2 4.5-3.1 7.5-3.1s5.5 1 7.5 3.1c2 2 3.1 4.5 3.1 7.5s-1 5.5-3.1 7.5c-2 2-4.5 3.1-7.5 3.1s-5.5-1.1-7.5-3.1zm16.5 72.8h-18v-64.6h18v64.6zM1086.5 79.2c0 9.4-3.2 17.2-9.7 23.6-6.5 6.4-14.6 9.6-24.4 9.6-9.8 0-17.9-3.2-24.4-9.6-6.5-6.4-9.7-14.3-9.7-23.6s3.2-17.3 9.7-23.7c6.5-6.4 14.6-9.7 24.4-9.7 9.8 0 17.9 3.2 24.4 9.7 6.4 6.4 9.7 14.3 9.7 23.7zm-50.2 0c0 5.3 1.5 9.6 4.5 12.9 3 3.3 6.8 5 11.5 5s8.5-1.7 11.5-5 4.5-7.6 4.5-12.9-1.5-9.6-4.5-13-6.8-5-11.5-5-8.5 1.7-11.5 5-4.5 7.7-4.5 13zM1117.8 75.5v36h-18v-64.6h18v7.2c5.4-5.5 11.6-8.3 18.4-8.3 6.8 0 12.5 2.4 17.1 7.2 4.6 4.8 6.9 11.2 6.9 19.2v39.2h-18v-36.4c0-9.9-3.6-14.9-10.9-14.9-3.6 0-6.7 1.3-9.4 3.9-2.8 2.6-4.1 6.4-4.1 11.5z"/></g><g opacity=".25" fill="url(#a)"><path d="M50.2 72.2v-34.8h18.1v64.6h-18.1v-8.5c-4.5 6.3-10.3 9.5-17.3 9.5-7.1 0-13-2.2-17.8-6.7s-7.2-11-7.2-19.7v-39.2h18.1v35.2c0 9.9 3.6 14.9 10.9 14.9 3.6 0 6.7-1.3 9.4-3.9 2.5-2.7 3.9-6.5 3.9-11.4zM103.3 65.9v36h-18v-64.5h18v7.2c5.4-5.5 11.6-8.3 18.4-8.3 6.8 0 12.5 2.4 17.1 7.2 4.6 4.8 6.9 11.2 6.9 19.2v39.2h-18v-36.4c0-9.9-3.6-14.9-10.9-14.9-3.6 0-6.7 1.3-9.4 3.9-2.7 2.6-4.1 6.4-4.1 11.4zM187.9 102.9c-7.6 0-14.5-3.2-20.5-9.7-6-6.5-9-14.5-9-24.1 0-9.6 2.9-17.5 8.8-23.6 5.8-6.1 12.7-9.2 20.5-9.2 7.8 0 14.2 2.8 19.2 8.3v-31.7h18v89h-18v-8.5c-5.1 6.3-11.4 9.5-19 9.5zm-11.4-33.1c0 5.2 1.6 9.5 4.7 12.8 3.1 3.3 6.8 5 10.9 5 4.2 0 7.7-1.7 10.6-5 2.9-3.3 4.4-7.6 4.4-12.8 0-5.2-1.5-9.6-4.4-13.1-2.9-3.5-6.5-5.2-10.7-5.2-4.2 0-7.9 1.8-10.9 5.3-3.1 3.4-4.6 7.8-4.6 13zM297.8 92.6c-7.3 6.9-15.8 10.3-25.6 10.3s-17.9-3-24.3-9.1c-6.4-6-9.6-14.1-9.6-24.3 0-10.2 3.3-18.2 9.8-24.2 6.5-6 14.2-9 23.1-9 8.9 0 16.4 2.7 22.6 8 6.2 5.4 9.3 12.7 9.3 22.1v9.6h-47c.6 3.5 2.4 6.4 5.5 8.6 3.1 2.2 6.6 3.4 10.6 3.4 6.3 0 11.5-2.1 15.6-6.4l10 11zm-17.2-38.3c-2.5-2.1-5.5-3.1-9.1-3.1-3.6 0-6.8 1.1-9.8 3.2-3 2.2-4.7 5.1-5.2 8.8h28.3c-.3-3.9-1.8-6.8-4.2-8.9zM350 53.2c-5.4 0-9.4 1.9-12 5.7-2.6 3.8-4 8.8-4 15.1v28h-18v-64.6h18v8.5c2.3-2.6 5.2-4.9 8.7-6.7 3.5-1.8 7-2.8 10.6-2.9l.1 16.9h-3.4zM428 86.9c6 0 11.4-3 16.2-9l10.7 12c-8.3 8.6-17.3 13-27 13s-17.9-3.1-24.5-9.2c-6.7-6.1-10-14.1-10-24s3.4-17.9 10.1-24.1c6.8-6.2 14.8-9.3 24.1-9.3 4.6 0 9.3 1 14.1 2.9 4.8 1.9 8.9 4.8 12.5 8.5l-9.4 12.2c-2.1-2.5-4.6-4.4-7.6-5.8-3-1.4-6-2-8.9-2-4.7 0-8.8 1.5-12.2 4.6-3.4 3.1-5.1 7.4-5.1 12.8 0 5.5 1.7 9.7 5.1 12.8 3.4 3.1 7.4 4.6 11.9 4.6zM530.4 69.7c0 9.4-3.2 17.2-9.7 23.6-6.5 6.4-14.6 9.6-24.4 9.6-9.8 0-17.9-3.2-24.4-9.6-6.5-6.4-9.7-14.3-9.7-23.6s3.2-17.3 9.7-23.7c6.5-6.4 14.6-9.7 24.4-9.7 9.8 0 17.9 3.2 24.4 9.7 6.5 6.4 9.7 14.3 9.7 23.7zm-50.2 0c0 5.3 1.5 9.6 4.5 12.9 3 3.3 6.8 5 11.5 5s8.5-1.7 11.5-5 4.5-7.6 4.5-12.9-1.5-9.6-4.5-13c-3-3.4-6.8-5-11.5-5s-8.5 1.7-11.5 5c-3 3.4-4.5 7.7-4.5 13zM561.7 65.9v36h-18v-64.5h18v7.2c5.4-5.5 11.6-8.3 18.4-8.3 6.8 0 12.5 2.4 17.1 7.2 4.6 4.8 6.9 11.2 6.9 19.2v39.2h-18v-36.4c0-9.9-3.6-14.9-10.9-14.9-3.6 0-6.7 1.3-9.4 3.9-2.7 2.6-4.1 6.4-4.1 11.4zM669 81.8c0 6.4-2.3 11.5-7 15.3-4.7 3.8-10.6 5.8-17.8 5.8-4.8 0-9.8-.9-15-2.6-5.2-1.7-9.9-4.3-14-7.6l7.9-11.3c6.7 5.2 13.9 7.8 21.5 7.8 2.3 0 4.2-.5 5.5-1.4 1.4-.9 2-2.1 2-3.7 0-1.5-.9-2.9-2.8-4.2-1.9-1.3-4.6-2.5-8.2-3.6-3.6-1.1-6.3-2.1-8.2-2.9-1.9-.8-4-2-6.4-3.5-4.9-3-7.3-7.5-7.3-13.5s2.4-10.8 7.2-14.6c4.8-3.8 11-5.6 18.6-5.6 7.6 0 15.2 2.6 22.8 7.7l-6.7 12c-5.6-3.8-11.2-5.8-16.7-5.8-5.6 0-8.3 1.5-8.3 4.6 0 1.7.9 3 2.6 4 1.8 1 4.7 2.1 8.8 3.4 4.1 1.3 7 2.3 8.7 2.9 1.7.7 3.8 1.7 6.2 3.2 4.4 2.7 6.6 7.3 6.6 13.6zM703.8 50.3v28.9c0 2.5.6 4.4 1.9 5.8 1.3 1.4 2.8 2.1 4.6 2.1 3.4 0 6.2-1.5 8.5-4.6l6.7 12.6c-5.6 5.1-11.5 7.7-17.7 7.7-6.2 0-11.4-2-15.7-6.1-4.3-4.1-6.4-9.6-6.4-16.7v-29.7h-7.6v-13h7.6v-19.2h18.1v19.3h15.6v13h-15.6zM769.1 53.2c-5.4 0-9.4 1.9-12 5.7-2.6 3.8-4 8.8-4 15.1v28h-18v-64.6h18v8.5c2.3-2.6 5.2-4.9 8.7-6.7 3.5-1.8 7-2.8 10.6-2.9l.1 16.9h-3.4zM826.1 72.2v-34.8h18.1v64.6h-18.1v-8.5c-4.5 6.3-10.3 9.5-17.3 9.5s-13-2.2-17.8-6.7-7.2-11-7.2-19.7v-39.2h18.1v35.2c0 9.9 3.6 14.9 10.9 14.9 3.6 0 6.7-1.3 9.4-3.9 2.5-2.7 3.9-6.5 3.9-11.4zM892.2 86.9c6 0 11.4-3 16.2-9l10.7 12c-8.3 8.6-17.3 13-27 13s-17.9-3.1-24.5-9.2c-6.7-6.1-10-14.1-10-24s3.4-17.9 10.1-24.1c6.8-6.2 14.8-9.3 24.1-9.3 4.6 0 9.3 1 14.1 2.9 4.8 1.9 8.9 4.8 12.5 8.5l-9.4 12.2c-2.1-2.5-4.6-4.4-7.6-5.8-3-1.4-6-2-8.9-2-4.7 0-8.8 1.5-12.2 4.6-3.4 3.1-5.1 7.4-5.1 12.8 0 5.5 1.7 9.7 5.1 12.8 3.3 3.1 7.3 4.6 11.9 4.6zM952.5 50.3v28.9c0 2.5.6 4.4 1.9 5.8 1.3 1.4 2.8 2.1 4.6 2.1 3.4 0 6.2-1.5 8.5-4.6l6.7 12.6c-5.6 5.1-11.5 7.7-17.7 7.7-6.2 0-11.4-2-15.7-6.1-4.3-4.1-6.4-9.6-6.4-16.7v-29.7h-7.6v-13h7.6v-19.2h18.1v19.3h15.6v13h-15.6zM985.4 29.2c-2-2-3.1-4.5-3.1-7.5s1-5.5 3.1-7.5c2-2 4.5-3.1 7.5-3.1s5.5 1 7.5 3.1c2 2 3.1 4.5 3.1 7.5s-1 5.5-3.1 7.5c-2 2-4.5 3.1-7.5 3.1-3-.1-5.5-1.1-7.5-3.1zm16.5 72.7h-18v-64.5h18v64.5zM1083.5 69.7c0 9.4-3.2 17.2-9.7 23.6-6.5 6.4-14.6 9.6-24.4 9.6-9.8 0-17.9-3.2-24.4-9.6-6.5-6.4-9.7-14.3-9.7-23.6s3.2-17.3 9.7-23.7c6.5-6.4 14.6-9.7 24.4-9.7 9.8 0 17.9 3.2 24.4 9.7 6.4 6.4 9.7 14.3 9.7 23.7zm-50.2 0c0 5.3 1.5 9.6 4.5 12.9 3 3.3 6.8 5 11.5 5s8.5-1.7 11.5-5 4.5-7.6 4.5-12.9-1.5-9.6-4.5-13c-3-3.4-6.8-5-11.5-5s-8.5 1.7-11.5 5c-3 3.4-4.5 7.7-4.5 13zM1114.8 65.9v36h-18v-64.5h18v7.2c5.4-5.5 11.6-8.3 18.4-8.3 6.8 0 12.5 2.4 17.1 7.2 4.6 4.8 6.9 11.2 6.9 19.2v39.2h-18v-36.4c0-9.9-3.6-14.9-10.9-14.9-3.6 0-6.7 1.3-9.4 3.9-2.8 2.6-4.1 6.4-4.1 11.4z"/></g><g><g opacity=".25" fill="#f00"><path d="M50.2 72.2v-34.8h18.1v64.6h-18.1v-8.5c-4.5 6.3-10.3 9.5-17.3 9.5-7.1 0-13-2.2-17.8-6.7s-7.2-11-7.2-19.7v-39.2h18.1v35.2c0 9.9 3.6 14.9 10.9 14.9 3.6 0 6.7-1.3 9.4-3.9 2.5-2.7 3.9-6.5 3.9-11.4zM103.3 65.9v36h-18v-64.5h18v7.2c5.4-5.5 11.6-8.3 18.4-8.3 6.8 0 12.5 2.4 17.1 7.2 4.6 4.8 6.9 11.2 6.9 19.2v39.2h-18v-36.4c0-9.9-3.6-14.9-10.9-14.9-3.6 0-6.7 1.3-9.4 3.9-2.7 2.6-4.1 6.4-4.1 11.4zM187.9 102.9c-7.6 0-14.5-3.2-20.5-9.7-6-6.5-9-14.5-9-24.1 0-9.6 2.9-17.5 8.8-23.6 5.8-6.1 12.7-9.2 20.5-9.2 7.8 0 14.2 2.8 19.2 8.3v-31.7h18v89h-18v-8.5c-5.1 6.3-11.4 9.5-19 9.5zm-11.4-33.1c0 5.2 1.6 9.5 4.7 12.8 3.1 3.3 6.8 5 10.9 5 4.2 0 7.7-1.7 10.6-5 2.9-3.3 4.4-7.6 4.4-12.8 0-5.2-1.5-9.6-4.4-13.1-2.9-3.5-6.5-5.2-10.7-5.2-4.2 0-7.9 1.8-10.9 5.3-3.1 3.4-4.6 7.8-4.6 13zM297.8 92.6c-7.3 6.9-15.8 10.3-25.6 10.3s-17.9-3-24.3-9.1c-6.4-6-9.6-14.1-9.6-24.3 0-10.2 3.3-18.2 9.8-24.2 6.5-6 14.2-9 23.1-9 8.9 0 16.4 2.7 22.6 8 6.2 5.4 9.3 12.7 9.3 22.1v9.6h-47c.6 3.5 2.4 6.4 5.5 8.6 3.1 2.2 6.6 3.4 10.6 3.4 6.3 0 11.5-2.1 15.6-6.4l10 11zm-17.2-38.3c-2.5-2.1-5.5-3.1-9.1-3.1-3.6 0-6.8 1.1-9.8 3.2-3 2.2-4.7 5.1-5.2 8.8h28.3c-.3-3.9-1.8-6.8-4.2-8.9zM350 53.2c-5.4 0-9.4 1.9-12 5.7-2.6 3.8-4 8.8-4 15.1v28h-18v-64.6h18v8.5c2.3-2.6 5.2-4.9 8.7-6.7 3.5-1.8 7-2.8 10.6-2.9l.1 16.9h-3.4zM428 86.9c6 0 11.4-3 16.2-9l10.7 12c-8.3 8.6-17.3 13-27 13s-17.9-3.1-24.5-9.2c-6.7-6.1-10-14.1-10-24s3.4-17.9 10.1-24.1c6.8-6.2 14.8-9.3 24.1-9.3 4.6 0 9.3 1 14.1 2.9 4.8 1.9 8.9 4.8 12.5 8.5l-9.4 12.2c-2.1-2.5-4.6-4.4-7.6-5.8-3-1.4-6-2-8.9-2-4.7 0-8.8 1.5-12.2 4.6-3.4 3.1-5.1 7.4-5.1 12.8 0 5.5 1.7 9.7 5.1 12.8 3.4 3.1 7.4 4.6 11.9 4.6zM530.4 69.7c0 9.4-3.2 17.2-9.7 23.6-6.5 6.4-14.6 9.6-24.4 9.6-9.8 0-17.9-3.2-24.4-9.6-6.5-6.4-9.7-14.3-9.7-23.6s3.2-17.3 9.7-23.7c6.5-6.4 14.6-9.7 24.4-9.7 9.8 0 17.9 3.2 24.4 9.7 6.5 6.4 9.7 14.3 9.7 23.7zm-50.2 0c0 5.3 1.5 9.6 4.5 12.9 3 3.3 6.8 5 11.5 5s8.5-1.7 11.5-5 4.5-7.6 4.5-12.9-1.5-9.6-4.5-13c-3-3.4-6.8-5-11.5-5s-8.5 1.7-11.5 5c-3 3.4-4.5 7.7-4.5 13zM561.7 65.9v36h-18v-64.5h18v7.2c5.4-5.5 11.6-8.3 18.4-8.3 6.8 0 12.5 2.4 17.1 7.2 4.6 4.8 6.9 11.2 6.9 19.2v39.2h-18v-36.4c0-9.9-3.6-14.9-10.9-14.9-3.6 0-6.7 1.3-9.4 3.9-2.7 2.6-4.1 6.4-4.1 11.4zM669 81.8c0 6.4-2.3 11.5-7 15.3-4.7 3.8-10.6 5.8-17.8 5.8-4.8 0-9.8-.9-15-2.6-5.2-1.7-9.9-4.3-14-7.6l7.9-11.3c6.7 5.2 13.9 7.8 21.5 7.8 2.3 0 4.2-.5 5.5-1.4 1.4-.9 2-2.1 2-3.7 0-1.5-.9-2.9-2.8-4.2-1.9-1.3-4.6-2.5-8.2-3.6-3.6-1.1-6.3-2.1-8.2-2.9-1.9-.8-4-2-6.4-3.5-4.9-3-7.3-7.5-7.3-13.5s2.4-10.8 7.2-14.6c4.8-3.8 11-5.6 18.6-5.6 7.6 0 15.2 2.6 22.8 7.7l-6.7 12c-5.6-3.8-11.2-5.8-16.7-5.8-5.6 0-8.3 1.5-8.3 4.6 0 1.7.9 3 2.6 4 1.8 1 4.7 2.1 8.8 3.4 4.1 1.3 7 2.3 8.7 2.9 1.7.7 3.8 1.7 6.2 3.2 4.4 2.7 6.6 7.3 6.6 13.6zM703.8 50.3v28.9c0 2.5.6 4.4 1.9 5.8 1.3 1.4 2.8 2.1 4.6 2.1 3.4 0 6.2-1.5 8.5-4.6l6.7 12.6c-5.6 5.1-11.5 7.7-17.7 7.7-6.2 0-11.4-2-15.7-6.1-4.3-4.1-6.4-9.6-6.4-16.7v-29.7h-7.6v-13h7.6v-19.2h18.1v19.3h15.6v13h-15.6zM769.1 53.2c-5.4 0-9.4 1.9-12 5.7-2.6 3.8-4 8.8-4 15.1v28h-18v-64.6h18v8.5c2.3-2.6 5.2-4.9 8.7-6.7 3.5-1.8 7-2.8 10.6-2.9l.1 16.9h-3.4zM826.1 72.2v-34.8h18.1v64.6h-18.1v-8.5c-4.5 6.3-10.3 9.5-17.3 9.5s-13-2.2-17.8-6.7-7.2-11-7.2-19.7v-39.2h18.1v35.2c0 9.9 3.6 14.9 10.9 14.9 3.6 0 6.7-1.3 9.4-3.9 2.5-2.7 3.9-6.5 3.9-11.4zM892.2 86.9c6 0 11.4-3 16.2-9l10.7 12c-8.3 8.6-17.3 13-27 13s-17.9-3.1-24.5-9.2c-6.7-6.1-10-14.1-10-24s3.4-17.9 10.1-24.1c6.8-6.2 14.8-9.3 24.1-9.3 4.6 0 9.3 1 14.1 2.9 4.8 1.9 8.9 4.8 12.5 8.5l-9.4 12.2c-2.1-2.5-4.6-4.4-7.6-5.8-3-1.4-6-2-8.9-2-4.7 0-8.8 1.5-12.2 4.6-3.4 3.1-5.1 7.4-5.1 12.8 0 5.5 1.7 9.7 5.1 12.8 3.3 3.1 7.3 4.6 11.9 4.6zM952.5 50.3v28.9c0 2.5.6 4.4 1.9 5.8 1.3 1.4 2.8 2.1 4.6 2.1 3.4 0 6.2-1.5 8.5-4.6l6.7 12.6c-5.6 5.1-11.5 7.7-17.7 7.7-6.2 0-11.4-2-15.7-6.1-4.3-4.1-6.4-9.6-6.4-16.7v-29.7h-7.6v-13h7.6v-19.2h18.1v19.3h15.6v13h-15.6zM985.4 29.2c-2-2-3.1-4.5-3.1-7.5s1-5.5 3.1-7.5c2-2 4.5-3.1 7.5-3.1s5.5 1 7.5 3.1c2 2 3.1 4.5 3.1 7.5s-1 5.5-3.1 7.5c-2 2-4.5 3.1-7.5 3.1-3-.1-5.5-1.1-7.5-3.1zm16.5 72.7h-18v-64.5h18v64.5zM1083.5 69.7c0 9.4-3.2 17.2-9.7 23.6-6.5 6.4-14.6 9.6-24.4 9.6-9.8 0-17.9-3.2-24.4-9.6-6.5-6.4-9.7-14.3-9.7-23.6s3.2-17.3 9.7-23.7c6.5-6.4 14.6-9.7 24.4-9.7 9.8 0 17.9 3.2 24.4 9.7 6.4 6.4 9.7 14.3 9.7 23.7zm-50.2 0c0 5.3 1.5 9.6 4.5 12.9 3 3.3 6.8 5 11.5 5s8.5-1.7 11.5-5 4.5-7.6 4.5-12.9-1.5-9.6-4.5-13c-3-3.4-6.8-5-11.5-5s-8.5 1.7-11.5 5c-3 3.4-4.5 7.7-4.5 13zM1114.8 65.9v36h-18v-64.5h18v7.2c5.4-5.5 11.6-8.3 18.4-8.3 6.8 0 12.5 2.4 17.1 7.2 4.6 4.8 6.9 11.2 6.9 19.2v39.2h-18v-36.4c0-9.9-3.6-14.9-10.9-14.9-3.6 0-6.7 1.3-9.4 3.9-2.8 2.6-4.1 6.4-4.1 11.4z"/></g></g></svg>