<?xml version="1.0" encoding="utf-8"?>
<!-- Generator: Adobe Illustrator 18.1.1, SVG Export Plug-In . SVG Version: 6.00 Build 0)  -->
<!DOCTYPE svg PUBLIC "-//W3C//DTD SVG 1.1//EN" "http://www.w3.org/Graphics/SVG/1.1/DTD/svg11.dtd">
<svg version="1.1" id="Layer_1" xmlns="http://www.w3.org/2000/svg" xmlns:xlink="http://www.w3.org/1999/xlink" x="0px" y="0px"
	 viewBox="0 0 105 105" enable-background="new 0 0 105 105" xml:space="preserve">
<linearGradient id="SVGID_1_" gradientUnits="userSpaceOnUse" x1="52.5" y1="8.0987" x2="52.5" y2="101.1424">
	<stop  offset="0" style="stop-color:#6061B1"/>
	<stop  offset="0.9898" style="stop-color:#222373"/>
</linearGradient>
<circle fill="url(#SVGID_1_)" cx="52.5" cy="52.5" r="52.5"/>
<g>
	<g>
		<path fill="#FFFFFF" d="M25.1,39h11.8v37.9H25.1V39z M30.9,20.2c3.8,0,6.8,3.1,6.8,6.8c0,3.8-3.1,6.8-6.8,6.8
			c-3.8,0-6.8-3.1-6.8-6.8C24.1,23.2,27.2,20.2,30.9,20.2"/>
		<path fill="#FFFFFF" d="M44.2,39h11.3v5.2h0.2c1.6-3,5.4-6.1,11.1-6.1c11.9,0,14.1,7.8,14.1,18v20.8H69.1V58.4
			c0-4.4-0.1-10-6.1-10c-6.1,0-7.1,4.8-7.1,9.7v18.7H44.2V39z"/>
	</g>
</g>
<g>
</g>
<g>
</g>
<g>
</g>
<g>
</g>
<g>
</g>
<g>
</g>
<g>
</g>
<g>
</g>
<g>
</g>
<g>
</g>
<g>
</g>
<g>
</g>
<g>
</g>
<g>
</g>
<g>
</g>
</svg>
