<?xml version="1.0" encoding="utf-8"?>
<!-- Generator: Adobe Illustrator 18.1.1, SVG Export Plug-In . SVG Version: 6.00 Build 0)  -->
<!DOCTYPE svg PUBLIC "-//W3C//DTD SVG 1.1//EN" "http://www.w3.org/Graphics/SVG/1.1/DTD/svg11.dtd">
<svg version="1.1" xmlns="http://www.w3.org/2000/svg" xmlns:xlink="http://www.w3.org/1999/xlink" x="0px" y="0px"
	 viewBox="0 0 65 65" enable-background="new 0 0 65 65" xml:space="preserve">
<g id="Layer_1">
	<g>
		<g>
			<path fill="#FFFFFF" d="M13.2,23h8.3v26.6h-8.3V23z M17.3,9.8c2.6,0,4.8,2.2,4.8,4.8c0,2.7-2.2,4.8-4.8,4.8
				c-2.7,0-4.8-2.2-4.8-4.8C12.5,11.9,14.7,9.8,17.3,9.8"/>
			<path fill="#FFFFFF" d="M26.7,23h7.9v3.6h0.1c1.1-2.1,3.8-4.3,7.8-4.3c8.4,0,9.9,5.5,9.9,12.7v14.6h-8.3v-13
				c0-3.1-0.1-7.1-4.3-7.1c-4.3,0-5,3.4-5,6.8v13.2h-8.3V23z"/>
		</g>
	</g>
</g>
<g id="behance">
</g>
</svg>
