<?xml version="1.0" encoding="utf-8"?>
<!-- Generator: Adobe Illustrator 18.1.1, SVG Export Plug-In . SVG Version: 6.00 Build 0)  -->
<!DOCTYPE svg PUBLIC "-//W3C//DTD SVG 1.1//EN" "http://www.w3.org/Graphics/SVG/1.1/DTD/svg11.dtd">
<svg version="1.1" id="Layer_1" xmlns="http://www.w3.org/2000/svg" xmlns:xlink="http://www.w3.org/1999/xlink" x="0px" y="0px"
	 viewBox="0 0 873 480" enable-background="new 0 0 873 480" xml:space="preserve">
<pattern  y="480" width="111.4" height="111.4" patternUnits="userSpaceOnUse" id="New_Pattern_2" viewBox="0 -111.4 111.4 111.4" overflow="visible">
	<g>
		<polygon fill="none" points="0,0 111.4,0 111.4,-111.4 0,-111.4 		"/>
		<g>
			<polygon fill="none" points="0,0 111.4,0 111.4,-111.4 0,-111.4 			"/>
			<polygon fill="none" points="0.1,-55 56.4,-111.2 63,-111.2 0.1,-48.4 			"/>
			<polygon fill="none" points="0.1,-63 48.4,-111.2 55,-111.2 0.1,-56.4 			"/>
			<polygon fill="none" points="24.5,-0.2 111.1,-86.9 111.1,-80.2 31.2,-0.2 			"/>
			<polygon fill="none" points="0.1,-70.9 40.5,-111.2 47,-111.2 0.1,-64.4 			"/>
			<polygon fill="none" points="48.4,-0.2 111.1,-63 111.1,-56.4 55,-0.2 			"/>
			<polygon fill="none" points="40.5,-0.2 111.1,-70.9 111.1,-64.4 47,-0.2 			"/>
			<polygon fill="none" points="0.1,-78.9 32.5,-111.2 39.2,-111.2 0.1,-72.3 			"/>
			<polygon fill="none" points="32.5,-0.2 111.1,-78.9 111.1,-72.3 39.2,-0.2 			"/>
			<polygon fill="none" points="0.7,-0.2 111.1,-110.7 111.1,-104.1 7.3,-0.2 			"/>
			<polygon fill="none" points="8.7,-0.2 111.1,-102.7 111.1,-96.2 15.2,-0.2 			"/>
			<polygon fill="none" points="56.4,-0.2 111.1,-55 111.1,-48.4 63,-0.2 			"/>
			<polygon fill="none" points="16.7,-0.2 111.1,-94.8 111.1,-88.2 23.2,-0.2 			"/>
			<polygon fill="none" points="0.1,-7.2 104.2,-111.2 110.7,-111.2 0.1,-0.7 			"/>
			<polygon fill="none" points="0.1,-15.2 96.2,-111.2 102.8,-111.2 0.1,-8.6 			"/>
			<polygon fill="none" points="0.1,-39.1 72.4,-111.2 78.9,-111.2 0.1,-32.5 			"/>
			<polygon fill="none" points="0.1,-47 64.4,-111.2 71,-111.2 0.1,-40.4 			"/>
			<polygon fill="none" points="0.1,-31.2 80.2,-111.2 86.9,-111.2 0.1,-24.5 			"/>
			<polygon fill="none" points="0.1,-23.2 88.2,-111.2 94.9,-111.2 0.1,-16.6 			"/>
			<polygon fill="none" points="0.1,-86.9 24.5,-111.2 31.2,-111.2 0.1,-80.2 			"/>
			<polygon fill="none" points="88.2,-0.2 111.1,-23.2 111.1,-16.6 94.9,-0.2 			"/>
			<polygon fill="none" points="80.2,-0.2 111.1,-31.2 111.1,-24.5 86.9,-0.2 			"/>
			<polygon fill="none" points="0.1,-102.7 8.7,-111.2 15.2,-111.2 0.1,-96.2 			"/>
			<polygon fill="none" points="0.1,-94.8 16.7,-111.2 23.2,-111.2 0.1,-88.2 			"/>
			<polygon fill="none" points="104.2,-0.2 111.1,-7.2 111.1,-0.7 110.7,-0.2 			"/>
			<polygon fill="none" points="96.2,-0.2 111.1,-15.2 111.1,-8.6 102.8,-0.2 			"/>
			<polygon fill="none" points="0.1,-110.7 0.7,-111.2 7.3,-111.2 0.1,-104.1 			"/>
			<polygon fill="none" points="72.4,-0.2 111.1,-39.1 111.1,-32.5 78.9,-0.2 			"/>
			<polygon fill="none" points="64.4,-0.2 111.1,-47 111.1,-40.4 71,-0.2 			"/>
			<polygon fill="#FFFF00" points="111.4,-0.7 111.4,0 110.7,0 			"/>
			<polygon fill="#FFFFFF" points="102.8,-0.2 111.1,-8.6 111.1,-7.2 104.2,-0.2 			"/>
			<polygon fill="#FFFFFF" points="94.9,-0.2 111.1,-16.6 111.1,-15.2 96.2,-0.2 			"/>
			<polygon fill="#FFFFFF" points="86.9,-0.2 111.1,-24.5 111.1,-23.2 88.2,-0.2 			"/>
			<polygon fill="#FFFFFF" points="78.9,-0.2 111.1,-32.5 111.1,-31.2 80.2,-0.2 			"/>
			<polygon fill="#FFFFFF" points="71,-0.2 111.1,-40.4 111.1,-39.1 72.4,-0.2 			"/>
			<polygon fill="#FFFFFF" points="63,-0.2 111.1,-48.4 111.1,-47 64.4,-0.2 			"/>
			<polygon fill="#FFFFFF" points="55,-0.2 111.1,-56.4 111.1,-55 56.4,-0.2 			"/>
			<polygon fill="#FFFFFF" points="47,-0.2 111.1,-64.4 111.1,-63 48.4,-0.2 			"/>
			<polygon fill="#FFFFFF" points="39.2,-0.2 111.1,-72.3 111.1,-70.9 40.5,-0.2 			"/>
			<polygon fill="#FFFFFF" points="31.2,-0.2 111.1,-80.2 111.1,-78.9 32.5,-0.2 			"/>
			<polygon fill="#FFFFFF" points="23.2,-0.2 111.1,-88.2 111.1,-86.9 24.5,-0.2 			"/>
			<polygon fill="#FFFFFF" points="15.2,-0.2 111.1,-96.2 111.1,-94.8 16.7,-0.2 			"/>
			<polygon fill="#FFFFFF" points="7.3,-0.2 111.1,-104.1 111.1,-102.7 8.7,-0.2 			"/>
			<polygon fill="#FFFFFF" points="0.1,-0.2 0.1,-0.7 110.7,-111.2 111.1,-111.2 111.1,-110.7 0.7,-0.2 			"/>
			<polygon fill="#FFFFFF" points="0.1,-8.6 102.8,-111.2 104.2,-111.2 0.1,-7.2 			"/>
			<polygon fill="#FFFFFF" points="0.1,-16.6 94.9,-111.2 96.2,-111.2 0.1,-15.2 			"/>
			<polygon fill="#FFFFFF" points="0.1,-24.5 86.9,-111.2 88.2,-111.2 0.1,-23.2 			"/>
			<polygon fill="#FFFFFF" points="0.1,-32.5 78.9,-111.2 80.2,-111.2 0.1,-31.2 			"/>
			<polygon fill="#FFFFFF" points="0.1,-40.4 71,-111.2 72.4,-111.2 0.1,-39.1 			"/>
			<polygon fill="#FFFFFF" points="0.1,-48.4 63,-111.2 64.4,-111.2 0.1,-47 			"/>
			<polygon fill="#FFFFFF" points="0.1,-56.4 55,-111.2 56.4,-111.2 0.1,-55 			"/>
			<polygon fill="#FFFFFF" points="0.1,-64.4 47,-111.2 48.4,-111.2 0.1,-63 			"/>
			<polygon fill="#FFFFFF" points="0.1,-72.3 39.2,-111.2 40.5,-111.2 0.1,-70.9 			"/>
			<polygon fill="#FFFFFF" points="0.1,-80.2 31.2,-111.2 32.5,-111.2 0.1,-78.9 			"/>
			<polygon fill="#FFFFFF" points="0.1,-88.2 23.2,-111.2 24.5,-111.2 0.1,-86.9 			"/>
			<polygon fill="#FFFFFF" points="0.1,-96.2 15.2,-111.2 16.7,-111.2 0.1,-94.8 			"/>
			<polygon fill="#FFFFFF" points="0.1,-104.1 7.3,-111.2 8.7,-111.2 0.1,-102.7 			"/>
			<polygon fill="#FFFF00" points="0,-111.4 0.7,-111.4 0,-110.7 			"/>
		</g>
	</g>
</pattern>
<g id="Layer_6">
</g>
<g id="stroke">
	<g enable-background="new    ">
		<path fill="none" stroke="#FFFFFF" stroke-width="2" stroke-miterlimit="10" d="M89.4,263.6l19.1-47.6h18.1l-30.1,74.8H82.4
			L52.3,216h18.1L89.4,263.6z"/>
		<path fill="none" stroke="#FFFFFF" stroke-width="2" stroke-miterlimit="10" d="M135.5,216h16.7v74.8h-16.7V216z"/>
		<path fill="none" stroke="#FFFFFF" stroke-width="2" stroke-miterlimit="10" d="M198.2,263.6l19.1-47.6h18.1l-30.1,74.8h-14.1
			L161,216h18.1L198.2,263.6z"/>
		<path fill="none" stroke="#FFFFFF" stroke-width="2" stroke-miterlimit="10" d="M244.2,216h16.7v74.8h-16.7V216z"/>
		<path fill="none" stroke="#FFFFFF" stroke-width="2" stroke-miterlimit="10" d="M333.3,216v14.9H296v15.4h33.5v14.2H296v15.5h38.4
			v14.8h-55.1V216H333.3z"/>
		<path fill="none" stroke="#FFFFFF" stroke-width="2" stroke-miterlimit="10" d="M401.7,216h16.7v74.8h-16.7l-35.7-46.9v46.9h-16.7
			V216H365l36.7,48.2V216z"/>
		<path fill="none" stroke="#FFFFFF" stroke-width="2" stroke-miterlimit="10" d="M489.2,216h16.7v74.8h-16.7l-35.7-46.9v46.9h-16.7
			V216h15.6l36.7,48.2V216z"/>
		<path fill="none" stroke="#FFFFFF" stroke-width="2" stroke-miterlimit="10" d="M578.2,216v14.9H541v15.4h33.5v14.2H541v15.5h38.4
			v14.8h-55.1V216H578.2z"/>
	</g>
	<g enable-background="new    ">
		<path fill="none" stroke="#FFFFFF" stroke-width="2" stroke-miterlimit="10" d="M622.6,216h16.7v30.7l28.3-30.7h20.7l-29.8,33.1
			c2.6,3.6,7.3,10.2,14.2,20c6.9,9.7,12.1,17,15.5,21.8h-19.5l-21.9-29.5l-7.5,8.4v21.2h-16.7V216z"/>
	</g>
	<g enable-background="new    ">
		<path fill="none" stroke="#FFFFFF" stroke-width="2" stroke-miterlimit="10" d="M761.5,290.8l-7-16.2h-31.4l-7,16.2h-17.8
			l32.3-74.8h16.2l32.3,74.8H761.5z M738.9,238.3l-9.4,21.7h18.7L738.9,238.3z"/>
	</g>
	<g enable-background="new    ">
		<path fill="none" stroke="#FFFFFF" stroke-width="2" stroke-miterlimit="10" d="M812.3,290.8h-16.7v-29.5L769.7,216h18.1
			l16.2,27.8l16.2-27.8h18.1l-25.9,45.3V290.8z"/>
	</g>
</g>
<g id="pattern_copy">
	<g enable-background="new    ">
		
			<pattern  id="SVGID_1_" xlink:href="#New_Pattern_2" patternTransform="matrix(0.9739 0 0 -0.9739 -149.6075 -16580.4336)"  enable-background="new    ">
		</pattern>
		<path fill="url(#SVGID_1_)" d="M88.7,254.2l19.1-47.6h18.1l-30.1,74.8H81.6l-30.1-74.8h18.1L88.7,254.2z"/>
		
			<pattern  id="SVGID_2_" xlink:href="#New_Pattern_2" patternTransform="matrix(0.9739 0 0 -0.9739 -149.6075 -16580.4336)"  enable-background="new    ">
		</pattern>
		<path fill="url(#SVGID_2_)" d="M134.7,206.5h16.7v74.8h-16.7V206.5z"/>
		
			<pattern  id="SVGID_3_" xlink:href="#New_Pattern_2" patternTransform="matrix(0.9739 0 0 -0.9739 -149.6075 -16580.4336)"  enable-background="new    ">
		</pattern>
		<path fill="url(#SVGID_3_)" d="M197.5,254.2l19.1-47.6h18.1l-30.1,74.8h-14.1l-30.1-74.8h18.1L197.5,254.2z"/>
		
			<pattern  id="SVGID_4_" xlink:href="#New_Pattern_2" patternTransform="matrix(0.9739 0 0 -0.9739 -149.6075 -16580.4336)"  enable-background="new    ">
		</pattern>
		<path fill="url(#SVGID_4_)" d="M243.5,206.5h16.7v74.8h-16.7V206.5z"/>
		
			<pattern  id="SVGID_5_" xlink:href="#New_Pattern_2" patternTransform="matrix(0.9739 0 0 -0.9739 -149.6075 -16580.4336)"  enable-background="new    ">
		</pattern>
		<path fill="url(#SVGID_5_)" d="M332.6,206.5v14.9h-37.3v15.4h33.5v14.2h-33.5v15.5h38.4v14.8h-55.1v-74.8H332.6z"/>
		
			<pattern  id="SVGID_6_" xlink:href="#New_Pattern_2" patternTransform="matrix(0.9739 0 0 -0.9739 -149.6075 -16580.4336)"  enable-background="new    ">
		</pattern>
		<path fill="url(#SVGID_6_)" d="M401,206.5h16.7v74.8H401l-35.7-46.9v46.9h-16.7v-74.8h15.6l36.7,48.2V206.5z"/>
		
			<pattern  id="SVGID_7_" xlink:href="#New_Pattern_2" patternTransform="matrix(0.9739 0 0 -0.9739 -149.6075 -16580.4336)"  enable-background="new    ">
		</pattern>
		<path fill="url(#SVGID_7_)" d="M488.4,206.5h16.7v74.8h-16.7l-35.7-46.9v46.9h-16.7v-74.8h15.6l36.7,48.2V206.5z"/>
		
			<pattern  id="SVGID_8_" xlink:href="#New_Pattern_2" patternTransform="matrix(0.9739 0 0 -0.9739 -149.6075 -16580.4336)"  enable-background="new    ">
		</pattern>
		<path fill="url(#SVGID_8_)" d="M577.5,206.5v14.9h-37.3v15.4h33.5v14.2h-33.5v15.5h38.4v14.8h-55.1v-74.8H577.5z"/>
	</g>
	<g enable-background="new    ">
		
			<pattern  id="SVGID_9_" xlink:href="#New_Pattern_2" patternTransform="matrix(0.9739 0 0 -0.9739 -149.6075 -16580.4336)"  enable-background="new    ">
		</pattern>
		<path fill="url(#SVGID_9_)" d="M621.8,206.5h16.7v30.7l28.3-30.7h20.7l-29.8,33.1c2.6,3.6,7.3,10.2,14.2,20
			c6.9,9.7,12.1,17,15.5,21.8H668L646,251.8l-7.5,8.4v21.2h-16.7V206.5z"/>
	</g>
	<g enable-background="new    ">
		
			<pattern  id="SVGID_10_" xlink:href="#New_Pattern_2" patternTransform="matrix(0.9739 0 0 -0.9739 -149.6075 -16580.4336)"  enable-background="new    ">
		</pattern>
		<path fill="url(#SVGID_10_)" d="M759.2,281.4l-7-16.2h-31.4l-7,16.2h-17.8l32.3-74.8h16.2l32.3,74.8H759.2z M736.6,228.8
			l-9.4,21.7h18.7L736.6,228.8z"/>
	</g>
	<g enable-background="new    ">
		
			<pattern  id="SVGID_11_" xlink:href="#New_Pattern_2" patternTransform="matrix(0.9739 0 0 -0.9739 -149.6075 -16580.4336)"  enable-background="new    ">
		</pattern>
		<path fill="url(#SVGID_11_)" d="M810,281.4h-16.7v-29.5l-25.9-45.3h18.1l16.2,27.8l16.2-27.8h18.1L810,251.8V281.4z"/>
	</g>
</g>
<g id="pattern">
	<g enable-background="new    ">
		<path fill="#FFFFFF" d="M95.5,257.1l19.1-47.6h18.1l-30.1,74.8H88.4l-30.1-74.8h18.1L95.5,257.1z"/>
		<path fill="#FFFFFF" d="M141.5,209.4h16.7v74.8h-16.7V209.4z"/>
		<path fill="#FFFFFF" d="M204.3,257.1l19.1-47.6h18.1l-30.1,74.8h-14.1l-30.1-74.8h18.1L204.3,257.1z"/>
		<path fill="#FFFFFF" d="M250.3,209.4H267v74.8h-16.7V209.4z"/>
		<path fill="#FFFFFF" d="M339.4,209.4v14.9h-37.3v15.4h33.5V254h-33.5v15.5h38.4v14.8h-55.1v-74.8H339.4z"/>
		<path fill="#FFFFFF" d="M407.8,209.4h16.7v74.8h-16.7l-35.7-46.9v46.9h-16.7v-74.8h15.6l36.7,48.2V209.4z"/>
		<path fill="#FFFFFF" d="M495.3,209.4H512v74.8h-16.7l-35.7-46.9v46.9h-16.7v-74.8h15.6l36.7,48.2V209.4z"/>
		<path fill="#FFFFFF" d="M584.3,209.4v14.9h-37.3v15.4h33.5V254h-33.5v15.5h38.4v14.8h-55.1v-74.8H584.3z"/>
	</g>
	<g enable-background="new    ">
		<path fill="#FFFFFF" d="M628.7,209.4h16.7v30.7l28.3-30.7h20.7l-29.8,33.1c2.6,3.6,7.3,10.2,14.2,20c6.9,9.7,12.1,17,15.5,21.8
			h-19.5l-21.9-29.5l-7.5,8.4v21.2h-16.7V209.4z"/>
	</g>
	<g enable-background="new    ">
		<path fill="#FFFFFF" d="M769.2,284.3l-7-16.2h-31.4l-7,16.2h-17.8l32.3-74.8h16.2l32.3,74.8H769.2z M746.6,231.7l-9.4,21.7H756
			L746.6,231.7z"/>
	</g>
	<g enable-background="new    ">
		<path fill="#FFFFFF" d="M820,284.3h-16.7v-29.5l-25.9-45.3h18.1l16.2,27.8l16.2-27.8h18.1L820,254.7V284.3z"/>
	</g>
</g>
</svg>
