<?xml version="1.0" encoding="utf-8"?>
<!-- Generator: Adobe Illustrator 18.1.1, SVG Export Plug-In . SVG Version: 6.00 Build 0)  -->
<!DOCTYPE svg PUBLIC "-//W3C//DTD SVG 1.1//EN" "http://www.w3.org/Graphics/SVG/1.1/DTD/svg11.dtd">
<svg version="1.1" xmlns="http://www.w3.org/2000/svg" xmlns:xlink="http://www.w3.org/1999/xlink" x="0px" y="0px"
	 viewBox="0 0 896.4 158.4" enable-background="new 0 0 896.4 158.4" xml:space="preserve">
<pattern  x="1" y="-201.4" width="114.4" height="114.4" patternUnits="userSpaceOnUse" id="New_Pattern_2" viewBox="0 -114.4 114.4 114.4" overflow="visible">
	<g>
		<polygon fill="none" points="0,-114.4 114.4,-114.4 114.4,0 0,0 		"/>
		<polygon fill="none" points="0.1,-57.9 57.9,-0.2 64.7,-0.2 0.1,-64.7 		"/>
		<polygon fill="none" points="0.1,-49.7 49.7,-0.2 56.5,-0.2 0.1,-56.5 		"/>
		<polygon fill="none" points="25.2,-114.2 114.1,-25.2 114.1,-32 32,-114.2 		"/>
		<polygon fill="none" points="0.1,-41.6 41.6,-0.2 48.3,-0.2 0.1,-48.3 		"/>
		<polygon fill="none" points="49.7,-114.2 114.1,-49.7 114.1,-56.5 56.5,-114.2 		"/>
		<polygon fill="none" points="41.6,-114.2 114.1,-41.6 114.1,-48.3 48.3,-114.2 		"/>
		<polygon fill="none" points="0.1,-33.4 33.4,-0.2 40.2,-0.2 0.1,-40.2 		"/>
		<polygon fill="none" points="33.4,-114.2 114.1,-33.4 114.1,-40.2 40.2,-114.2 		"/>
		<polygon fill="none" points="0.7,-114.2 114.1,-0.7 114.1,-7.5 7.5,-114.2 		"/>
		<polygon fill="none" points="8.9,-114.2 114.1,-8.9 114.1,-15.6 15.6,-114.2 		"/>
		<polygon fill="none" points="57.9,-114.2 114.1,-57.9 114.1,-64.7 64.7,-114.2 		"/>
		<polygon fill="none" points="17.1,-114.2 114.1,-17.1 114.1,-23.8 23.8,-114.2 		"/>
		<polygon fill="none" points="0.1,-107 107,-0.2 113.7,-0.2 0.1,-113.7 		"/>
		<polygon fill="none" points="0.1,-98.8 98.8,-0.2 105.6,-0.2 0.1,-105.6 		"/>
		<polygon fill="none" points="0.1,-74.3 74.3,-0.2 81,-0.2 0.1,-81 		"/>
		<polygon fill="none" points="0.1,-66.1 66.1,-0.2 72.9,-0.2 0.1,-72.9 		"/>
		<polygon fill="none" points="0.1,-82.4 82.4,-0.2 89.2,-0.2 0.1,-89.2 		"/>
		<polygon fill="none" points="0.1,-90.6 90.6,-0.2 97.4,-0.2 0.1,-97.4 		"/>
		<polygon fill="none" points="0.1,-25.2 25.2,-0.2 32,-0.2 0.1,-32 		"/>
		<polygon fill="none" points="90.6,-114.2 114.1,-90.6 114.1,-97.4 97.4,-114.2 		"/>
		<polygon fill="none" points="82.4,-114.2 114.1,-82.4 114.1,-89.2 89.2,-114.2 		"/>
		<polygon fill="none" points="0.1,-8.9 8.9,-0.2 15.6,-0.2 0.1,-15.6 		"/>
		<polygon fill="none" points="0.1,-17.1 17.1,-0.2 23.8,-0.2 0.1,-23.8 		"/>
		<polygon fill="none" points="107,-114.2 114.1,-107 114.1,-113.7 113.7,-114.2 		"/>
		<polygon fill="none" points="98.8,-114.2 114.1,-98.8 114.1,-105.6 105.6,-114.2 		"/>
		<polygon fill="none" points="0.1,-0.7 0.7,-0.2 7.5,-0.2 0.1,-7.5 		"/>
		<polygon fill="none" points="74.3,-114.2 114.1,-74.3 114.1,-81 81,-114.2 		"/>
		<polygon fill="none" points="66.1,-114.2 114.1,-66.1 114.1,-72.9 72.9,-114.2 		"/>
		<polygon fill="#FFFF00" points="114.4,-113.7 114.4,-114.4 113.7,-114.4 		"/>
		<polygon fill="#FFFFFF" points="105.6,-114.2 114.1,-105.6 114.1,-107 107,-114.2 		"/>
		<polygon fill="#FFFFFF" points="97.4,-114.2 114.1,-97.4 114.1,-98.8 98.8,-114.2 		"/>
		<polygon fill="#FFFFFF" points="89.2,-114.2 114.1,-89.2 114.1,-90.6 90.6,-114.2 		"/>
		<polygon fill="#FFFFFF" points="81,-114.2 114.1,-81 114.1,-82.4 82.4,-114.2 		"/>
		<polygon fill="#FFFFFF" points="72.9,-114.2 114.1,-72.9 114.1,-74.3 74.3,-114.2 		"/>
		<polygon fill="#FFFFFF" points="64.7,-114.2 114.1,-64.7 114.1,-66.1 66.1,-114.2 		"/>
		<polygon fill="#FFFFFF" points="56.5,-114.2 114.1,-56.5 114.1,-57.9 57.9,-114.2 		"/>
		<polygon fill="#FFFFFF" points="48.3,-114.2 114.1,-48.3 114.1,-49.7 49.7,-114.2 		"/>
		<polygon fill="#FFFFFF" points="40.2,-114.2 114.1,-40.2 114.1,-41.6 41.6,-114.2 		"/>
		<polygon fill="#FFFFFF" points="32,-114.2 114.1,-32 114.1,-33.4 33.4,-114.2 		"/>
		<polygon fill="#FFFFFF" points="23.8,-114.2 114.1,-23.8 114.1,-25.2 25.2,-114.2 		"/>
		<polygon fill="#FFFFFF" points="15.6,-114.2 114.1,-15.6 114.1,-17.1 17.1,-114.2 		"/>
		<polygon fill="#FFFFFF" points="7.5,-114.2 114.1,-7.5 114.1,-8.9 8.9,-114.2 		"/>
		<polygon fill="#FFFFFF" points="0.1,-114.2 0.1,-113.7 113.7,-0.2 114.1,-0.2 114.1,-0.7 0.7,-114.2 		"/>
		<polygon fill="#FFFFFF" points="0.1,-105.6 105.6,-0.2 107,-0.2 0.1,-107 		"/>
		<polygon fill="#FFFFFF" points="0.1,-97.4 97.4,-0.2 98.8,-0.2 0.1,-98.8 		"/>
		<polygon fill="#FFFFFF" points="0.1,-89.2 89.2,-0.2 90.6,-0.2 0.1,-90.6 		"/>
		<polygon fill="#FFFFFF" points="0.1,-81 81,-0.2 82.4,-0.2 0.1,-82.4 		"/>
		<polygon fill="#FFFFFF" points="0.1,-72.9 72.9,-0.2 74.3,-0.2 0.1,-74.3 		"/>
		<polygon fill="#FFFFFF" points="0.1,-64.7 64.7,-0.2 66.1,-0.2 0.1,-66.1 		"/>
		<polygon fill="#FFFFFF" points="0.1,-56.5 56.5,-0.2 57.9,-0.2 0.1,-57.9 		"/>
		<polygon fill="#FFFFFF" points="0.1,-48.3 48.3,-0.2 49.7,-0.2 0.1,-49.7 		"/>
		<polygon fill="#FFFFFF" points="0.1,-40.2 40.2,-0.2 41.6,-0.2 0.1,-41.6 		"/>
		<polygon fill="#FFFFFF" points="0.1,-32 32,-0.2 33.4,-0.2 0.1,-33.4 		"/>
		<polygon fill="#FFFFFF" points="0.1,-23.8 23.8,-0.2 25.2,-0.2 0.1,-25.2 		"/>
		<polygon fill="#FFFFFF" points="0.1,-15.6 15.6,-0.2 17.1,-0.2 0.1,-17.1 		"/>
		<polygon fill="#FFFFFF" points="0.1,-7.5 7.5,-0.2 8.9,-0.2 0.1,-8.9 		"/>
		<polygon fill="#FFFF00" points="0,0 0.7,0 0,-0.7 		"/>
	</g>
</pattern>
<g id="Layer_6">
</g>
<g id="stroke">
	<text transform="matrix(1 0 0 1 53.9971 131.4028)"><tspan x="0" y="0" fill="none" stroke="#FFFFFF" stroke-width="2" stroke-miterlimit="10" font-family="'Montserrat-Bold'" font-size="109.9292">VIVIENNE </tspan><tspan x="575.8" y="0" fill="none" stroke="#FFFFFF" stroke-width="2" stroke-miterlimit="10" font-family="'Montserrat-Bold'" font-size="109.9292" letter-spacing="9">K</tspan><tspan x="663.7" y="0" fill="none" stroke="#FFFFFF" stroke-width="2" stroke-miterlimit="10" font-family="'Montserrat-Bold'" font-size="109.9292" letter-spacing="-8">A</tspan><tspan x="737.5" y="0" fill="none" stroke="#FFFFFF" stroke-width="2" stroke-miterlimit="10" font-family="'Montserrat-Bold'" font-size="109.9292">Y</tspan></text>
</g>
<g id="pattern_copy">
	<text transform="matrix(1 0 0 1 53.2486 121.6635)" opacity="0.25"><tspan x="0" y="0" fill="url(#New_Pattern_2)" font-family="'Montserrat-Bold'" font-size="109.9292">VIVIENNE </tspan><tspan x="575.8" y="0" fill="url(#New_Pattern_2)" font-family="'Montserrat-Bold'" font-size="109.9292" letter-spacing="8">K</tspan><tspan x="662.1" y="0" fill="url(#New_Pattern_2)" font-family="'Montserrat-Bold'" font-size="109.9292" letter-spacing="-8">A</tspan><tspan x="735.9" y="0" fill="url(#New_Pattern_2)" font-family="'Montserrat-Bold'" font-size="109.9292">Y</tspan></text>
</g>
<g id="pattern">
	<text transform="matrix(1 0 0 1 60.2486 124.6635)" opacity="0.25"><tspan x="0" y="0" fill="#FFFFFF" font-family="'Montserrat-Bold'" font-size="109.9292">VIVIENNE </tspan><tspan x="575.8" y="0" fill="#FFFFFF" font-family="'Montserrat-Bold'" font-size="109.9292" letter-spacing="11">K</tspan><tspan x="665.4" y="0" fill="#FFFFFF" font-family="'Montserrat-Bold'" font-size="109.9292" letter-spacing="-8">A</tspan><tspan x="739.2" y="0" fill="#FFFFFF" font-family="'Montserrat-Bold'" font-size="109.9292">Y</tspan></text>
</g>
</svg>
