<svg xmlns="http://www.w3.org/2000/svg" viewBox="0 0 696.9 110.3" enable-background="new 0 0 696.9 110.3"><style type="text/css">.st0{fill:none;} .st1{fill:none;stroke:#FFFFFF;stroke-miterlimit:10;} .st2{fill:#FBB01E;} .st3{opacity:0.4;} .st4{fill:url(#SVGID_1_);} .st5{fill:url(#SVGID_2_);} .st6{fill:url(#SVGID_3_);} .st7{fill:url(#SVGID_4_);} .st8{fill:url(#SVGID_5_);} .st9{fill:url(#SVGID_6_);} .st10{fill:url(#SVGID_7_);} .st11{fill:url(#SVGID_8_);} .st12{fill:url(#SVGID_9_);} .st13{fill:url(#SVGID_10_);} .st14{fill:url(#SVGID_11_);} .st15{fill:none;stroke:#9E005D;stroke-width:2;}</style><pattern x="-105.2" y="-225.6" width="116.4" height="116.2" patternUnits="userSpaceOnUse" id="New_Pattern_8" viewBox="116.9 -233 116.4 116.2" overflow="visible"><path class="st0" d="M116.9-233h116.3v116.2h-116.3z"/><path class="st1" d="M233.2-116.5v1.2l115 114.8h1v-1.7l-114.2-114.3zM118.7-116.5l114.2 114.3v-5.4l-108.8-108.9zM126.9-116.5l106 106.1v-5.5l-100.5-100.6zM135.2-116.5l97.7 97.8v-5.5l-92.2-92.3zM176.7-116.5l56.2 56.3v-5.4l-50.8-50.9zM201.5-116.5l31.4 31.5v-5.5l-25.9-26zM143.5-116.5l89.4 89.5v-5.5l-83.9-84zM193.2-116.5l39.7 39.8v-5.5l-34.2-34.3zM218.1-116.5l14.8 14.9v-5.5l-9.3-9.4zM226.4-116.5l6.5 6.6v-5.4l-1.1-1.2zM209.8-116.5l23.1 23.2v-5.5l-17.6-17.7zM160.1-116.5l72.8 72.9v-5.5l-67.3-67.4zM151.8-116.5l81.1 81.2v-5.5l-75.6-75.7zM168.4-116.5l64.5 64.6v-5.4l-59.1-59.2zM184.9-116.5l48 48.1v-5.5l-42.5-42.6zM233.2-115.3v-1.5h-1.4zM223.6-116.5l9.3 9.4v-2.8l-6.5-6.6zM215.3-116.5l17.6 17.7v-2.8l-14.8-14.9zM207-116.5l25.9 26v-2.8l-23.1-23.2zM198.7-116.5l34.2 34.3v-2.8l-31.4-31.5zM190.4-116.5l42.5 42.6v-2.8l-39.7-39.8zM182.1-116.5l50.8 50.9v-2.8l-48-48.1zM173.8-116.5l59.1 59.2v-2.9l-56.2-56.3zM165.6-116.5l67.3 67.4v-2.8l-64.5-64.6zM157.3-116.5l75.6 75.7v-2.8l-72.8-72.9zM149-116.5l83.9 84v-2.8l-81.1-81.2zM140.7-116.5l92.2 92.3v-2.8l-89.4-89.5zM132.4-116.5l100.5 100.6v-2.8l-97.7-97.8zM124.1-116.5l108.8 108.9v-2.8l-106-106.1zM116.9-116.5v1.2l114.9 114.8h1.1v-1.7l-114.2-114.3zM2.3-116.5l114.2 114.3v-5.4l-108.8-108.9zM10.6-116.5l105.9 106.1v-5.5l-100.5-100.6zM18.9-116.5l97.6 97.8v-5.5l-92.2-92.3zM60.3-116.5l56.2 56.3v-5.4l-50.8-50.9zM85.1-116.5l31.4 31.5v-5.5l-25.9-26zM27.1-116.5l89.4 89.5v-5.5l-83.9-84zM76.9-116.5l39.6 39.8v-5.5l-34.2-34.3zM101.7-116.5l14.8 14.9v-5.5l-9.3-9.4zM110-116.5l6.5 6.6v-5.4l-1-1.2zM93.4-116.5l23.1 23.2v-5.5l-17.6-17.7zM43.7-116.5l72.8 72.9v-5.5l-67.3-67.4zM35.4-116.5l81.1 81.2v-5.5l-75.6-75.7zM52-116.5l64.5 64.6v-5.4l-59-59.2zM68.6-116.5l47.9 48.1v-5.5l-42.5-42.6zM116.9-115.3v-1.5h-1.4zM107.2-116.5l9.3 9.4v-2.8l-6.5-6.6zM98.9-116.5l17.6 17.7v-2.8l-14.8-14.9zM90.6-116.5l25.9 26v-2.8l-23.1-23.2zM82.3-116.5l34.2 34.3v-2.8l-31.4-31.5zM74-116.5l42.5 42.6v-2.8l-39.6-39.8zM65.7-116.5l50.8 50.9v-2.8l-47.9-48.1zM57.5-116.5l59 59.2v-2.9l-56.2-56.3zM49.2-116.5l67.3 67.4v-2.8l-64.5-64.6zM40.9-116.5l75.6 75.7v-2.8l-72.8-72.9zM32.6-116.5l83.9 84v-2.8l-81.1-81.2zM24.3-116.5l92.2 92.3v-2.8l-89.4-89.5zM16-116.5l100.5 100.6v-2.8l-97.6-97.8zM7.7-116.5l108.8 108.9v-2.8l-105.9-106.1zM.5-116.5v1.2l115 114.8h1v-1.7l-114.2-114.3zM233.2-217.8l101.3 101h5.4l-106.7-106.5zM233.2-209.6l93 92.8h5.4l-98.4-98.2zM233.2-226.1l109.6 109.3h5.4l-115-114.8zM233.2-201.3l84.7 84.5h5.5l-90.2-89.9zM233.2-168.1l51.6 51.3h5.4l-57-56.8zM233.2-176.4l59.8 59.6h5.5l-65.3-65.1zM233.2-193l76.4 76.2h5.5l-81.9-81.6zM233.2-184.7l68.1 67.9h5.5l-73.6-73.4zM233.2-151.6l35 34.8h5.4l-40.4-40.2zM233.2-159.8l43.3 43h5.4l-48.7-48.5zM233.2-135l18.4 18.2h5.5l-23.9-23.6zM233.2-126.7l10.1 9.9h5.5l-15.6-15.4zM233.2-143.3l26.7 26.5h5.5l-32.2-31.9zM233.2-118.4l1.8 1.6h5.5l-7.3-7.1zM233.2-232.8v1.2l115 114.8h1v-1.6l-114.2-114.4zM233.2-223.3l106.7 106.5h2.9l-109.6-109.3zM233.2-215l98.4 98.2h2.9l-101.3-101zM233.2-206.7l90.2 89.9h2.8l-93-92.8zM233.2-198.4l81.9 81.6h2.8l-84.7-84.5zM233.2-190.2l73.6 73.4h2.8l-76.4-76.2zM233.2-181.9l65.3 65.1h2.8l-68.1-67.9zM233.2-173.6l57 56.8h2.8l-59.8-59.6zM233.2-165.3l48.7 48.5h2.9l-51.6-51.3zM233.2-157l40.4 40.2h2.9l-43.3-43zM233.2-148.7l32.2 31.9h2.8l-35-34.8zM233.2-140.4l23.9 23.6h2.8l-26.7-26.5zM233.2-132.2l15.6 15.4h2.8l-18.4-18.2zM233.2-123.9l7.3 7.1h2.8l-10.1-9.9zM233.6-117h1.4l-1.4-1.4zM116.9-217.8l101.2 101h5.5l-106.7-106.5zM116.9-209.6l92.9 92.8h5.5l-98.4-98.2zM118.7-232.8l114.2 114.4v-5.5l-108.8-108.9zM116.9-226.1l109.5 109.3h5.4l-114.9-114.8zM126.9-232.8l106 106.1v-5.5l-100.5-100.6zM135.2-232.8l97.7 97.8v-5.4l-92.2-92.4zM116.9-201.3l84.6 84.5h5.5l-90.1-89.9zM116.9-168.1l51.5 51.3h5.4l-56.9-56.8zM116.9-176.4l59.8 59.6h5.4l-65.2-65.1zM116.9-193l76.3 76.2h5.5l-81.8-81.6zM116.9-184.7l68 67.9h5.5l-73.5-73.4zM176.7-232.8l56.2 56.4v-5.5l-50.8-50.9zM201.5-232.8l31.4 31.5v-5.4l-25.9-26.1zM143.5-232.8l89.4 89.5v-5.4l-83.9-84.1zM193.2-232.8l39.7 39.8v-5.4l-34.2-34.4zM218.1-232.8l14.8 15v-5.5l-9.3-9.5zM226.4-232.8l6.5 6.7v-5.5l-1.1-1.2zM209.8-232.8l23.1 23.2v-5.4l-17.6-17.8zM160.1-232.8l72.8 73v-5.5l-67.3-67.5zM151.8-232.8l81.1 81.2v-5.4l-75.6-75.8zM168.4-232.8l64.5 64.7v-5.5l-59.1-59.2zM116.9-151.6l34.9 34.8h5.5l-40.4-40.2zM184.9-232.8l48 48.1v-5.5l-42.5-42.6zM116.9-159.8l43.2 43h5.5l-48.7-48.5zM116.9-135l18.3 18.2h5.5l-23.8-23.6zM116.9-126.7l10 9.9h5.5l-15.5-15.4zM116.9-143.3l26.6 26.5h5.5l-32.1-31.9zM116.9-118.4l1.8 1.6h5.4l-7.2-7.1zM233.2-231.6v-1.4h-1.4zM223.6-232.8l9.3 9.5v-2.8l-6.5-6.7zM215.3-232.8l17.6 17.8v-2.8l-14.8-15zM207-232.8l25.9 26.1v-2.9l-23.1-23.2zM198.7-232.8l34.2 34.4v-2.9l-31.4-31.5zM190.4-232.8l42.5 42.6v-2.8l-39.7-39.8zM182.1-232.8l50.8 50.9v-2.8l-48-48.1zM173.8-232.8l59.1 59.2v-2.8l-56.2-56.4zM165.6-232.8l67.3 67.5v-2.8l-64.5-64.7zM157.3-232.8l75.6 75.8v-2.8l-72.8-73zM149-232.8l83.9 84.1v-2.9l-81.1-81.2zM140.7-232.8l92.2 92.4v-2.9l-89.4-89.5zM132.4-232.8l100.5 100.6v-2.8l-97.7-97.8zM124.1-232.8l108.8 108.9v-2.8l-106-106.1zM116.9-232.8v1.2l114.9 114.8h1.1v-1.6l-114.2-114.4zM116.9-223.3l106.7 106.5h2.8l-109.5-109.3zM116.9-215l98.4 98.2h2.8l-101.2-101zM116.9-206.7l90.1 89.9h2.8l-92.9-92.8zM116.9-198.4l81.8 81.6h2.8l-84.6-84.5zM116.9-190.2l73.5 73.4h2.8l-76.3-76.2zM116.9-181.9l65.2 65.1h2.8l-68-67.9zM116.9-173.6l56.9 56.8h2.9l-59.8-59.6zM116.9-165.3l48.7 48.5h2.8l-51.5-51.3zM116.9-157l40.4 40.2h2.8l-43.2-43zM116.9-148.7l32.1 31.9h2.8l-34.9-34.8zM116.9-140.4l23.8 23.6h2.8l-26.6-26.5zM116.9-132.2l15.5 15.4h2.8l-18.3-18.2zM116.9-123.9l7.2 7.1h2.8l-10-9.9zM117.2-117h1.5l-1.5-1.4zM2.3-232.8l114.2 114.4v-5.5l-108.8-108.9zM10.6-232.8l105.9 106.1v-5.5l-100.5-100.6zM18.9-232.8l97.6 97.8v-5.4l-92.2-92.4zM60.3-232.8l56.2 56.4v-5.5l-50.8-50.9zM85.1-232.8l31.4 31.5v-5.4l-25.9-26.1zM27.1-232.8l89.4 89.5v-5.4l-83.9-84.1zM76.9-232.8l39.6 39.8v-5.4l-34.2-34.4zM101.7-232.8l14.8 15v-5.5l-9.3-9.5zM110-232.8l6.5 6.7v-5.5l-1-1.2zM93.4-232.8l23.1 23.2v-5.4l-17.6-17.8zM43.7-232.8l72.8 73v-5.5l-67.3-67.5zM35.4-232.8l81.1 81.2v-5.4l-75.6-75.8zM52-232.8l64.5 64.7v-5.5l-59-59.2zM68.6-232.8l47.9 48.1v-5.5l-42.5-42.6zM116.9-231.6v-1.4h-1.4zM107.2-232.8l9.3 9.5v-2.8l-6.5-6.7zM98.9-232.8l17.6 17.8v-2.8l-14.8-15zM90.6-232.8l25.9 26.1v-2.9l-23.1-23.2zM82.3-232.8l34.2 34.4v-2.9l-31.4-31.5zM74-232.8l42.5 42.6v-2.8l-39.6-39.8zM65.7-232.8l50.8 50.9v-2.8l-47.9-48.1zM57.5-232.8l59 59.2v-2.8l-56.2-56.4zM49.2-232.8l67.3 67.5v-2.8l-64.5-64.7zM40.9-232.8l75.6 75.8v-2.8l-72.8-73zM32.6-232.8l83.9 84.1v-2.9l-81.1-81.2zM24.3-232.8l92.2 92.4v-2.9l-89.4-89.5zM16-232.8l100.5 100.6v-2.8l-97.6-97.8zM7.7-232.8l108.8 108.9v-2.8l-105.9-106.1zM.5-232.8v1.2l115 114.8h1v-1.6l-114.2-114.4zM233.2-334.1l101.3 101.1h5.4l-106.7-106.6zM233.2-325.8l93 92.8h5.4l-98.4-98.3zM233.2-342.4l109.6 109.4h5.4l-115-114.8zM233.2-317.5l84.7 84.5h5.5l-90.2-90zM233.2-284.4l51.6 51.4h5.4l-57-56.8zM233.2-292.7l59.8 59.7h5.5l-65.3-65.1zM233.2-309.2l76.4 76.2h5.5l-81.9-81.7zM233.2-300.9l68.1 67.9h5.5l-73.6-73.4zM233.2-267.8l35 34.8h5.4l-40.4-40.3zM233.2-276.1l43.3 43.1h5.4l-48.7-48.6zM233.2-251.2l18.4 18.2h5.5l-23.9-23.7zM233.2-242.9l10.1 9.9h5.5l-15.6-15.4zM233.2-259.5l26.7 26.5h5.5l-32.2-32zM233.2-234.7l1.8 1.7h5.5l-7.3-7.1zM233.2-349v1.2l115 114.8h1v-1.7l-114.2-114.3zM233.2-339.6l106.7 106.6h2.9l-109.6-109.4zM233.2-331.3l98.4 98.3h2.9l-101.3-101.1zM233.2-323l90.2 90h2.8l-93-92.8zM233.2-314.7l81.9 81.7h2.8l-84.7-84.5zM233.2-306.4l73.6 73.4h2.8l-76.4-76.2zM233.2-298.1l65.3 65.1h2.8l-68.1-67.9zM233.2-289.8l57 56.8h2.8l-59.8-59.7zM233.2-281.6l48.7 48.6h2.9l-51.6-51.4zM233.2-273.3l40.4 40.3h2.9l-43.3-43.1zM233.2-265l32.2 32h2.8l-35-34.8zM233.2-256.7l23.9 23.7h2.8l-26.7-26.5zM233.2-248.4l15.6 15.4h2.8l-18.4-18.2zM233.2-240.1l7.3 7.1h2.8l-10.1-9.9zM233.6-233.2h1.4l-1.4-1.5zM116.9-334.1l101.2 101.1h5.5l-106.7-106.6zM116.9-325.8l92.9 92.8h5.5l-98.4-98.3zM116.9-342.4l109.5 109.4h5.4l-114.9-114.8zM116.9-317.5l84.6 84.5h5.5l-90.1-90zM116.9-284.4l51.5 51.4h5.4l-56.9-56.8zM116.9-292.7l59.8 59.7h5.4l-65.2-65.1zM116.9-309.2l76.3 76.2h5.5l-81.8-81.7zM116.9-300.9l68 67.9h5.5l-73.5-73.4zM116.9-267.8l34.9 34.8h5.5l-40.4-40.3zM116.9-276.1l43.2 43.1h5.5l-48.7-48.6zM116.9-251.2l18.3 18.2h5.5l-23.8-23.7zM116.9-242.9l10 9.9h5.5l-15.5-15.4zM116.9-259.5l26.6 26.5h5.5l-32.1-32zM116.9-234.7l1.8 1.7h5.4l-7.2-7.1zM116.9-349v1.2l114.9 114.8h1.1v-1.7l-114.2-114.3zM116.9-339.6l106.7 106.6h2.8l-109.5-109.4zM116.9-331.3l98.4 98.3h2.8l-101.2-101.1zM116.9-323l90.1 90h2.8l-92.9-92.8zM116.9-314.7l81.8 81.7h2.8l-84.6-84.5zM116.9-306.4l73.5 73.4h2.8l-76.3-76.2zM116.9-298.1l65.2 65.1h2.8l-68-67.9zM116.9-289.8l56.9 56.8h2.9l-59.8-59.7zM116.9-281.6l48.7 48.6h2.8l-51.5-51.4zM116.9-273.3l40.4 40.3h2.8l-43.2-43.1zM116.9-265l32.1 32h2.8l-34.9-34.8zM116.9-256.7l23.8 23.7h2.8l-26.6-26.5zM116.9-248.4l15.5 15.4h2.8l-18.3-18.2zM116.9-240.1l7.2 7.1h2.8l-10-9.9zM117.2-233.2h1.5l-1.5-1.5zM.5-349v1.2l115 114.8h1v-1.7l-114.2-114.3z"/></pattern><path class="st2" d="M42.1 56.5l16.9-42.3h16l-26.6 66.4h-12.6l-26.6-66.4h16l16.9 42.3zM83.4 14.2h14.8v66.3h-14.8v-66.3zM139.4 56.5l16.9-42.2h16l-26.7 66.3h-12.5l-26.7-66.3h16l17 42.2zM180.7 14.2h14.8v66.3h-14.8v-66.3zM259.7 14.2v13.2h-33v13.7h29.7v12.6h-29.7v13.8h34.1v13.1h-48.9v-66.4h47.8zM318.4 14.2h14.8v66.3h-14.8l-31.6-41.5v41.6h-14.8v-66.4h13.9l32.5 42.7v-42.7zM393.6 14.2h14.8v66.3h-14.8l-31.6-41.5v41.6h-14.8v-66.4h13.8l32.5 42.7v-42.7zM469.7 14.2v13.2h-33v13.7h29.7v12.6h-29.7v13.8h34.1v13.1h-48.9v-66.4h47.8zM508.9 14.2h14.8v27.2l25.1-27.2h18.3l-26.4 29.3c2.3 3.2 6.5 9.1 12.6 17.7s10.7 15.1 13.8 19.3h-17.3l-19.5-26.2-6.6 7.4v18.8h-14.8v-66.3zM630.7 80.6l-6.2-14.3h-27.8l-6.2 14.3h-15.8l28.7-66.3h14.3l28.7 66.3h-15.7zm-20-46.6l-8.3 19.3h16.6l-8.3-19.3zM676.1 80.6h-14.8v-26.2l-23-40.1h16l14.3 24.7 14.3-24.7h16l-23 40.1v26.2z"/><g class="st3"><path class="st4" d="M31.8 57.1l16.9-42.2h16l-26.7 66.3h-12.5l-26.7-66.3h16l17 42.2z"/><path class="st5" d="M73 14.9h14.8v66.3h-14.8v-66.3z"/><path class="st6" d="M129.1 57.1l16.9-42.2h16l-26.7 66.3h-12.5l-26.6-66.3h16l16.9 42.2z"/><path class="st7" d="M170.4 14.9h14.8v66.3h-14.8v-66.3z"/><path class="st8" d="M249.3 14.9v13.2h-33v13.7h29.7v12.6h-29.7v13.8h34.1v13.1h-48.9v-66.4h47.8z"/><path class="st9" d="M308.1 14.9h14.8v66.3h-14.8l-31.6-41.6v41.6h-14.8v-66.3h13.9l32.5 42.7v-42.7z"/><path class="st10" d="M383.2 14.9h14.8v66.3h-14.8l-31.6-41.6v41.6h-14.8v-66.3h13.9l32.5 42.7v-42.7z"/><path class="st11" d="M459.3 14.9v13.2h-33v13.7h29.7v12.6h-29.7v13.8h34.1v13.1h-48.9v-66.4h47.8z"/><path class="st12" d="M498.6 14.9h14.8v27.2l25.1-27.2h18.3l-26.4 29.3c2.3 3.2 6.5 9.1 12.6 17.7s10.7 15.1 13.8 19.3h-17.3l-19.5-26.2-6.6 7.4v18.8h-14.8v-66.3z"/><path class="st13" d="M620.3 81.2l-6.2-14.3h-27.8l-6.2 14.3h-15.8l28.7-66.3h14.3l28.7 66.3h-15.7zm-20-46.6l-8.3 19.3h16.6l-8.3-19.3z"/><path class="st14" d="M665.8 81.2h-14.8v-26.2l-23-40.1h16l14.3 24.7 14.3-24.7h16l-23 40.1v26.2z"/></g><path class="st15" d="M37.8 62.3l16.9-42.2h16l-26.7 66.3h-12.5l-26.7-66.3h16l17 42.2zM79 20.1h14.8v66.3h-14.8v-66.3zM135.1 62.3l16.9-42.2h16l-26.7 66.3h-12.5l-26.7-66.3h16l17 42.2zM176.4 20.1h14.8v66.3h-14.8v-66.3zM255.3 20.1v13.2h-33v13.7h29.7v12.6h-29.7v13.8h34.1v13.1h-48.9v-66.4h47.8zM314.1 20.1h14.8v66.3h-14.8l-31.6-41.6v41.6h-14.8v-66.3h13.9l32.5 42.7v-42.7zM389.2 20.1h14.8v66.3h-14.8l-31.6-41.6v41.6h-14.8v-66.3h13.9l32.5 42.7v-42.7zM465.3 20.1v13.2h-33v13.7h29.7v12.6h-29.7v13.8h34.1v13.1h-48.9v-66.4h47.8zM504.6 20.1h14.8v27.2l25.1-27.2h18.3l-26.4 29.3c2.3 3.2 6.5 9.1 12.6 17.7s10.7 15.1 13.8 19.3h-17.3l-19.5-26.2-6.6 7.4v18.8h-14.8v-66.3zM626.3 86.4l-6.2-14.3h-27.8l-6.2 14.3h-15.8l28.7-66.3h14.3l28.7 66.3h-15.7zm-20-46.6l-8.3 19.3h16.6l-8.3-19.3zM671.8 86.4h-14.8v-26.2l-23-40.1h16l14.3 24.7 14.3-24.7h16l-23 40.1v26.2z"/></svg>