<?xml version="1.0" encoding="utf-8"?>
<!-- Generator: Adobe Illustrator 18.1.1, SVG Export Plug-In . SVG Version: 6.00 Build 0)  -->
<!DOCTYPE svg PUBLIC "-//W3C//DTD SVG 1.1//EN" "http://www.w3.org/Graphics/SVG/1.1/DTD/svg11.dtd">
<svg version="1.1" xmlns="http://www.w3.org/2000/svg" xmlns:xlink="http://www.w3.org/1999/xlink" x="0px" y="0px"
	 viewBox="0 0 1400 800" enable-background="new 0 0 1400 800" xml:space="preserve">
<g id="Layer_1">
	<rect stroke="#FFFFFF" stroke-miterlimit="10" width="1400" height="800"/>
</g>
<g id="Layer_4">
	<g>
		<g>
			<defs>
				<path id="SVGID_1_" d="M965.8,704H434.2c-20.7,0-37.4-16.8-37.4-37.4V135c0-20.7,16.8-37.4,37.4-37.4h531.6
					c20.7,0,37.4,16.8,37.4,37.4v531.6C1003.2,687.2,986.5,704,965.8,704z"/>
			</defs>
			<clipPath id="SVGID_2_">
				<use xlink:href="#SVGID_1_"  overflow="visible"/>
			</clipPath>
			<g transform="matrix(1 0 0 1 -7.629395e-06 0)" clip-path="url(#SVGID_2_)">
				
					<image overflow="visible" width="3586" height="2688" xlink:href="../../../../Graphic Design/final-mockups/final-logos/creativecommons-joiseyshowaa.jpg"  transform="matrix(0.2892 0 0 0.2892 97.1834 90.2313)">
				</image>
			</g>
		</g>
		<g>
			<g>
				<g>
					<path fill="#FFFFFF" d="M507.7,607.4h0.2l7.1-27.7h25.9v12c-2.5,1.6-2.3,4.1-2.3,6.6v30.4c0,2.5-0.2,5,2.3,6.6v12h-24.7v-12
						c2.5-1.6,2.3-4.1,2.3-6.6v-18.1h-0.2l-9.1,36.7h-6.6l-9.6-36.7h-0.2v18.1c0,2.5-0.2,5,2.3,6.6v12h-20.8v-12
						c2.5-1.6,2.3-4.1,2.3-6.6v-30.4c0-2.5,0.2-5-2.3-6.6v-12h26.6L507.7,607.4z"/>
				</g>
				<g>
					<path fill="#FFFFFF" d="M597.7,627.8c0,16.7-10.2,20.9-25.1,20.9s-25.1-4.2-25.1-20.9v-28.5c0-16.7,10.2-20.9,25.1-20.9
						s25.1,4.2,25.1,20.9V627.8z M568.4,628.8c0,0.5-0.2,5.3,4.1,5.3c4.3,0,4.1-4.8,4.1-5.3v-30.6c0-0.5,0.2-5.2-4.1-5.2
						c-4.3,0-4.1,4.7-4.1,5.2V628.8z"/>
				</g>
				<g>
					<path fill="#FFFFFF" d="M632.7,579.8h24.4v12c-2.8,1.6-2.6,4.1-2.6,6.6v27.4c-0.2,7.2-0.7,12.9-6.5,17.9c-5,4.3-11.8,5-17.9,5
						s-12.9-0.7-17.9-5c-5.8-5-6.3-10.7-6.5-17.9v-27.4c0-2.5,0.2-5-2.3-6.6v-12h25.6v12c-2.5,1.6-2.3,4.1-2.3,6.6v30.8
						c0,1.3,0.3,4.8,4.2,4.8s4.2-3.5,4.2-4.8v-30.8c-0.1-2.5,0.2-5-2.5-6.6V579.8z"/>
				</g>
				<g>
					<path fill="#FFFFFF" d="M697.6,610.3h0.2v-11.9c0-2.5,0.2-5-2.3-6.6v-12H717v12c-2.5,1.6-2.3,4.1-2.3,6.6v49h-20.4L681.8,617
						h-0.2v11.7c0,2.5-0.2,5,2.3,6.6v12h-21v-12c2.5-1.6,2.3-4.1,2.3-6.6v-30.4c0-2.5,0.2-5-2.3-6.6v-12h22.9L697.6,610.3z"/>
				</g>
				<g>
					<path fill="#FFFFFF" d="M721.6,579.8h58.3v30.5H765v-11.3c0-3.1-0.7-4.7-3.7-4.8v34.6c0,2.5-0.2,5,2.3,6.6v12h-25.6v-12
						c2.5-1.6,2.3-4.1,2.3-6.6v-34.6c-3,0.1-3.7,1.7-3.7,4.8v11.3h-14.9V579.8z"/>
				</g>
				<g>
					<path fill="#FFFFFF" d="M802.9,647.3h-23.3v-12c2.3-1.6,2.5-5,3.1-7.6l8.9-47.9h30l9.9,49c0.4,2.1,1.2,5.9,3.5,6.6v12h-26.6
						v-12c1.7-0.6,2.4-1.9,2.4-3.7c0-0.7-0.2-1.3-0.3-2h-10.2c-0.2,0.6-0.3,1.3-0.3,2c0,1.9,0.9,3.2,2.8,3.7V647.3z M808.7,616.5
						l-3.5-20h-0.2l-3.3,20H808.7z"/>
				</g>
				<g>
					<path fill="#FFFFFF" d="M841.4,598.4c0-2.5,0.2-5-2.3-6.6v-12h25.6v12c-2.5,1.6-2.3,4.1-2.3,6.6v30.4c0,2.5-0.2,5,2.3,6.6v12
						h-25.6v-12c2.5-1.6,2.3-4.1,2.3-6.6V598.4z"/>
				</g>
				<g>
					<path fill="#FFFFFF" d="M906.3,610.3h0.2v-11.9c0-2.5,0.2-5-2.3-6.6v-12h21.6v12c-2.5,1.6-2.3,4.1-2.3,6.6v49h-20.4L890.6,617
						h-0.2v11.7c0,2.5-0.2,5,2.3,6.6v12h-21v-12c2.5-1.6,2.3-4.1,2.3-6.6v-30.4c0-2.5,0.2-5-2.3-6.6v-12h22.9L906.3,610.3z"/>
				</g>
			</g>
			<path fill="none" d="M692.2,454.4c0.2-0.1,0.4-0.2,0.6-0.4v-10.5c-2-2.5-5.5-4.1-10.2-5h-47.2c-17.3,1.5-32.9,4.4-40.3,7.6
				c-1.6,2.4-3.2,6-2.5,7.5c0.4,0.9,2.3,1.4,5.1,1.4h89.4C688.9,454.9,690.6,454.6,692.2,454.4z"/>
			<path fill="none" d="M558,508.5h17.9v-15.6c0-2.9,0-11.8,10.1-12.1l3.9-0.1l0,64.3c0,3.7,0.1,8.7-3.9,12.3v14.8h36.3v-14.8
				c-4-3.6-4-8.5-3.9-12.3l0-1v-63.3l3.9,0.1c10.1,0.3,10.1,9.2,10.1,12.1v15.6h17.9v-44.7H558V508.5z"/>
			<path fill="none" d="M614.4,421.1h43.7c-0.6-1.4-0.9-2.9-0.9-4.5v-33.7c0-0.8,0.1-1.6,0.2-2.4h-43c-0.8,0-1.4,0.6-1.4,1.4v37.7
				C612.9,420.4,613.6,421.1,614.4,421.1z"/>
			<path fill="none" d="M791.2,309.1H617.4c-1.7,0-3.2-0.4-4.5-1.2c-1,1.8-1.6,3.9-1.6,6.1v30.2c0,6.2,4.4,11.4,10.3,12.6
				c0.4,0,0.9,0,1.3,0h159.2c0.4,0,0.9,0,1.3,0c5.9-1.2,10.3-6.4,10.3-12.6V314c0-1.8-0.4-3.5-1-5.1
				C792.3,309,791.7,309.1,791.2,309.1z"/>
			<path fill="none" d="M692.2,454.4c0.2-0.1,0.4-0.2,0.6-0.4v-10.5c-2-2.5-5.5-4.1-10.2-5h-47.2c-17.3,1.5-32.9,4.4-40.3,7.6
				c-1.6,2.4-3.2,6-2.5,7.5c0.4,0.9,2.3,1.4,5.1,1.4h89.4C688.9,454.9,690.6,454.6,692.2,454.4z"/>
			<path fill="none" d="M558,508.5h17.9v-15.6c0-2.9,0-11.8,10.1-12.1l3.9-0.1l0,64.3c0,3.7,0.1,8.7-3.9,12.3v14.8h36.3v-14.8
				c-4-3.6-4-8.5-3.9-12.3l0-1v-63.3l3.9,0.1c10.1,0.3,10.1,9.2,10.1,12.1v15.6h17.9v-44.7H558V508.5z"/>
			<path fill="none" d="M617.4,301.7h173.8c0.9,0,1.7-0.8,1.7-1.7v-19.9c0-0.9-0.8-1.7-1.7-1.7H617.4c-0.9,0-1.7,0.8-1.7,1.7V300
				C615.7,300.9,616.4,301.7,617.4,301.7z"/>
			<path fill="none" d="M614.4,421.1h43.7c-0.6-1.4-0.9-2.9-0.9-4.5v-33.7c0-0.8,0.1-1.6,0.2-2.4h-43c-0.8,0-1.4,0.6-1.4,1.4v37.7
				C612.9,420.4,613.6,421.1,614.4,421.1z"/>
			<path fill="none" d="M791.2,309.1H617.4c-1.7,0-3.2-0.4-4.5-1.2c-1,1.8-1.6,3.9-1.6,6.1v30.2c0,6.2,4.4,11.4,10.3,12.6
				c0.4,0,0.9,0,1.3,0h159.2c0.4,0,0.9,0,1.3,0c5.9-1.2,10.3-6.4,10.3-12.6V314c0-1.8-0.4-3.5-1-5.1
				C792.3,309,791.7,309.1,791.2,309.1z M634.3,342.6c-6.2,0-11.2-5-11.2-11.2c0-6.2,5-11.2,11.2-11.2c6.2,0,11.2,5,11.2,11.2
				C645.5,337.6,640.5,342.6,634.3,342.6z M767,342.6c-6.2,0-11.2-5-11.2-11.2c0-6.2,5-11.2,11.2-11.2c6.2,0,11.2,5,11.2,11.2
				C778.2,337.6,773.2,342.6,767,342.6z"/>
			<g>
				<circle fill="#FFFFFF" cx="767" cy="331.4" r="11.2"/>
				<circle fill="#FFFFFF" cx="634.3" cy="331.4" r="11.2"/>
				<path fill="#FFFFFF" d="M678.2,413.1H730c0.4,0,0.8-0.3,0.8-0.8v-23.1c0-0.4-0.3-0.8-0.8-0.8h-51.7c-0.4,0-0.8,0.3-0.8,0.8v23.1
					C677.5,412.8,677.8,413.1,678.2,413.1z"/>
				<path fill="#FFFFFF" d="M704.2,478.9c-3.9,0-6.2,1.6-7.6,2.9c-1.6,1.6-3.4,4.5-3.3,9.8v52.6c-0.1,5.3,1.8,8.3,3.4,9.9
					c1.3,1.3,3.7,2.9,7.5,2.9c3.8,0,6.2-1.6,7.5-2.9c1.6-1.6,3.4-4.6,3.4-10l0-52.6c0.1-5.2-1.8-8.2-3.3-9.8
					C710.5,480.5,708.1,478.9,704.2,478.9z M706.3,548.7c-0.3,0.3-0.8,0.6-2.1,0.6c-1.3,0-1.8-0.4-2.1-0.6c-0.4-0.4-1.2-1.5-1.1-4.6
					l0-52.7c0-2.8,0.8-3.9,1.1-4.3c0.3-0.3,0.8-0.7,2.1-0.7c1.3,0,1.8,0.4,2.1,0.7c0.3,0.3,1.1,1.5,1.1,4.4l0,52.7
					C707.5,547.2,706.6,548.3,706.3,548.7z"/>
			</g>
			<path fill="#FFFFFF" d="M885.1,128.7c-5.4-0.3-10.6,1.9-13.9,5.9c-2.3-1.3-4.8-2.1-7.5-2.2c-9.1-0.6-17,6.2-17.5,15.1
				c-0.3,5.1,1.8,9.9,5.6,13.1c-16.3,0.4-62.6,5.4-86.6,13.3c-98.3,24.9-142.2,81.7-153.7,99.2c-1.6,1.3-2.8,3.1-3.2,5.2l0,0h0
				c-0.1,0.6-0.2,1.2-0.2,1.8V300c0,1,0.2,2,0.5,2.9c-2.3,3.1-3.6,7-3.6,11.1v30.2c0,6.4,3.2,12.1,8,15.5c0,0-0.1,0-0.1,0
				c-8.5,1.6-23.9,8-25.4,33c-1.5,25.9,7.7,29.4,17.1,28.1c-0.6,5.2,1.1,9.3,4.1,12.3c0.5,0.8,1.1,1.3,2,1.7
				c0.3,0.2,0.5,0.4,0.8,0.5c-8.3,1.5-15.3,3.3-19.8,5.5l-0.7,0.3l-0.5,0.6c-1.1,1.4-6.1,8.6-3.7,14.2h-36.7v60.1h31.9l0,28.9
				c0,4.1-0.1,5.8-2.1,7.1l-1.8,1.1v26.5H630v-26.5l-1.8-1.1c-2-1.2-2.2-2.9-2.1-7.1l0-28.9h31.1v26.2c0,35.2,25.1,39.7,47,39.7
				c21.9,0,47-4.5,47-39.7v-48.8c0-15.8-5.1-25.4-12.7-31.2h11.8v20.3l1.7,1.1c2.2,1.4,3.5,4.4,4.9,7.5c0.4,0.9,0.8,1.8,1.2,2.7
				l19.5,39.7l0,11.8c0,1.5,0,3-0.2,3.9c-0.4,1.5-0.9,2.2-2,2.9l-1.8,1.1v26.5h51.7v-26.5l-1.8-1.1c-2-1.2-2.2-2.9-2.1-7.1l0-13.9
				l20.9-40.6c1.7-3.8,2.3-4.9,5-6.8l1.7-1.1v-26.4h-32c1.6-5.5-3-12-4-13.3l-0.5-0.6l-0.7-0.3c-4.5-2.2-11.7-4.1-20.1-5.6
				c0.7-0.4,1.3-0.7,1.9-1.2c1.4-0.3,2.5-1.4,3-2.7c2-2.4,3.3-5.5,3.6-9.2c9.4,1.4,18.7-2.1,17.2-28.1
				c-1.6-26.6-17.7-33.5-25.3-35.2c0,0-0.1-0.1-0.1-0.1c4.8-3.5,8-9.1,8-15.5V314c0-2.9-0.7-5.7-1.8-8.1c1.4-1.6,2.2-3.6,2.2-5.9
				v-19.9c0-2.1-0.8-4.1-2-5.6c-2.6-27.1,7.4-51.5,19.7-70.6c2.5-2.5,5.4-5.9,8.8-9.9c8.6-10.1,19.2-22.4,29.6-27.1
				c1.9,6.3,7.7,11.1,14.8,11.5c9.1,0.6,17-6.2,17.5-15.1c0.1-1,0-2-0.1-3c6.5-1.9,11.4-7.6,11.8-14.5
				C901.2,136.9,894.2,129.2,885.1,128.7z M615.7,280.1c0-0.9,0.8-1.7,1.7-1.7h173.8c0.9,0,1.7,0.8,1.7,1.7V300
				c0,0.9-0.8,1.7-1.7,1.7H617.4c-0.9,0-1.7-0.8-1.7-1.7V280.1z M612.9,381.9c0-0.8,0.6-1.4,1.4-1.4h43c-0.2,0.8-0.2,1.6-0.2,2.4
				v33.7c0,1.6,0.3,3.1,0.9,4.5h-43.7c-0.8,0-1.4-0.6-1.4-1.4V381.9z M650.3,508.5h-17.9v-15.6c0-2.9,0-11.8-10.1-12.1l-3.9-0.1V544
				l0,1c0,3.7-0.1,8.7,3.9,12.3v14.8H586v-14.8c4-3.6,4-8.6,3.9-12.3l0-64.3l-3.9,0.1c-10.1,0.3-10.1,9.2-10.1,12.1v15.6H558v-44.7
				h92.3V508.5z M597.8,455.2c-2.7,0-4.6-0.5-5.1-1.4c-0.7-1.5,0.9-5.2,2.5-7.5c7.4-3.3,23-6.1,40.3-7.6h47.2
				c4.8,0.8,8.2,2.5,10.2,5v10.5c-0.2,0.1-0.4,0.3-0.6,0.4c-1.7,0.2-3.3,0.4-5,0.7H597.8z M662.9,416.6v-33.7c0-3.5,2.9-6.4,6.4-6.4
				h69.7c3.5,0,6.4,2.9,6.4,6.4v33.7c0,3.5-2.9,6.4-6.4,6.4h-69.7C665.7,423,662.9,420.1,662.9,416.6z M658,461.4h13.1
				c-6.5,4.4-11.3,11.4-13.1,22.2V461.4z M743.5,493.5v48.8c0,23-11,32-39.3,32s-39.3-9-39.3-32v-48.8c0-23,11-32,39.3-32
				S743.5,470.5,743.5,493.5z M812.7,475v-11.2h28.7v14.8c-3.1,2.6-4.3,5-5.9,8.6l-21.7,42.1l0,15.7c0,3.7-0.1,8.7,3.9,12.3v14.8
				h-36.3v-14.8c2.2-2,3.1-4.4,3.6-6.2c0.4-1.9,0.4-3.9,0.4-5.8l0-13.5l-20.3-41.2c-0.4-0.8-0.7-1.6-1.1-2.4c-1.4-3.2-3-6.8-6-9.4
				v-14.8h33.7V475c0,9.1,2.6,15.4,7.1,23.3l3.3,5.8l3.3-5.8C810,490.4,812.7,484.1,812.7,475z M799.4,475v-12.7h5.6V475
				c0,5-0.9,8.9-2.8,13.1C800.3,483.9,799.4,480,799.4,475z M808.6,447.1c1.6,2.4,3.2,6,2.5,7.5c-0.4,0.9-2.3,1.4-5.1,1.4h-80.7
				c-3.3-0.9-6.7-1.4-10.1-1.8v-12.9c2.1-1.1,4.8-1.8,8.2-2.2c2.2-0.2,4.5-0.4,7-0.6h24.3C777.1,439.6,799.3,443,808.6,447.1z
				 M750.8,380.5h37.7c0.8,0,1.4,0.6,1.4,1.4v37.7c0,0.8-0.6,1.4-1.4,1.4h-38.4c0.6-1.4,0.9-2.9,0.9-4.5v-33.7
				C751,382,750.9,381.2,750.8,380.5z M793.8,344.3c0,6.2-4.4,11.4-10.3,12.6c-0.4,0-0.9,0-1.3,0H622.9c-0.4,0-0.9,0-1.3,0
				c-5.9-1.2-10.3-6.4-10.3-12.6V314c0-2.2,0.6-4.3,1.6-6.1c1.3,0.8,2.9,1.2,4.5,1.2h173.8c0.5,0,1.1-0.1,1.6-0.1
				c0.7,1.6,1,3.3,1,5.1V344.3z M823.1,190.8c-5.5,6.4-12.3,14.4-14.8,14.4l0,0c0,0-0.4-0.2-0.8-1.5c-0.6-1.8,0.8-6.5,1.7-9.7
				c1.3-4.5,1.9-6.7,0.7-8.3c-0.5-0.7-1.4-1.1-2.3-1.1c-1.2,0-2.3,0.7-3.1,1.5l-0.5,0.4c-3.5,2.9-9.3,7.8-13,7.8
				c-0.9,0-2-0.3-2.9-2.4c-1.2-2.9,0.6-5.3,2.5-7.3c0.8-0.8,1.8-2,1.1-3.5l-0.8-1.5h-1.6c-0.8,0-1.7,0.3-5.5,1.8l-4.5,1.7
				c-6.1,2.3-11.1,2.8-14.2,2.8c-5.4,0-7.7-1.5-7.9-1.9c0-0.4,1.6-2.6,8.6-5c21.4-7.3,64.8-12.4,83.1-13.3
				C839.4,171.8,830.6,182.1,823.1,190.8z M894.8,145.4c-0.3,5.1-4.5,9.3-9.8,9.7l-3.9,0.3l1.4,3.7c0.5,1.2,0.7,2.6,0.6,3.9
				c-0.3,5.7-5.4,10-11.3,9.6c-5.9-0.4-10.4-5.2-10-10.9l0.2-2.7l-2.2-0.7c-4.7-1.4-7.9-5.7-7.6-10.5c0.3-5.7,5.4-10,11.3-9.6
				c2.4,0.1,4.9,1.1,6.6,2.7l2.8,2.5l1.7-3.3c1.9-3.7,5.9-5.8,10.2-5.6C890.6,134.8,895.1,139.7,894.8,145.4z"/>
		</g>
	</g>
</g>
</svg>
