<?xml version="1.0" encoding="utf-8"?>
<!-- Generator: Adobe Illustrator 18.1.1, SVG Export Plug-In . SVG Version: 6.00 Build 0)  -->
<!DOCTYPE svg PUBLIC "-//W3C//DTD SVG 1.1//EN" "http://www.w3.org/Graphics/SVG/1.1/DTD/svg11.dtd">
<svg version="1.1" id="Layer_1" xmlns="http://www.w3.org/2000/svg" xmlns:xlink="http://www.w3.org/1999/xlink" x="0px" y="0px"
	 viewBox="0 0 105 105" enable-background="new 0 0 105 105" xml:space="preserve">
<linearGradient id="SVGID_1_" gradientUnits="userSpaceOnUse" x1="52.5" y1="8.0987" x2="52.5" y2="101.1424">
	<stop  offset="0" style="stop-color:#6061B1"/>
	<stop  offset="0.9898" style="stop-color:#222373"/>
</linearGradient>
<circle fill="url(#SVGID_1_)" cx="52.5" cy="52.5" r="52.5"/>
<path fill="#FFFFFF" d="M86.7,33.2c-2.4,1.1-4.9,1.8-7.6,2.1c2.7-1.6,4.8-4.2,5.8-7.3c-2.6,1.5-5.4,2.6-8.4,3.2
	c-2.4-2.6-5.9-4.2-9.7-4.2c-7.3,0-13.2,5.9-13.2,13.2c0,1,0.1,2,0.3,3c-11-0.6-20.7-5.8-27.3-13.8c-1.1,2-1.8,4.2-1.8,6.7
	c0,4.6,2.3,8.6,5.9,11c-2.2-0.1-4.2-0.7-6-1.7c0,0.1,0,0.1,0,0.2c0,6.4,4.6,11.8,10.6,13c-1.1,0.3-2.3,0.5-3.5,0.5
	c-0.9,0-1.7-0.1-2.5-0.2c1.7,5.3,6.6,9.1,12.4,9.2c-4.5,3.5-10.2,5.7-16.4,5.7c-1.1,0-2.1-0.1-3.2-0.2c5.9,3.8,12.8,5.9,20.3,5.9
	c24.3,0,37.6-20.2,37.6-37.6c0-0.6,0-1.1,0-1.7C82.7,38.2,85,35.9,86.7,33.2z"/>
<g>
</g>
<g>
</g>
<g>
</g>
<g>
</g>
<g>
</g>
<g>
</g>
<g>
</g>
<g>
</g>
<g>
</g>
<g>
</g>
<g>
</g>
<g>
</g>
<g>
</g>
<g>
</g>
<g>
</g>
</svg>
