<?xml version="1.0" encoding="utf-8"?>
<!-- Generator: Adobe Illustrator 18.1.1, SVG Export Plug-In . SVG Version: 6.00 Build 0)  -->
<!DOCTYPE svg PUBLIC "-//W3C//DTD SVG 1.1//EN" "http://www.w3.org/Graphics/SVG/1.1/DTD/svg11.dtd">
<svg version="1.1" xmlns="http://www.w3.org/2000/svg" xmlns:xlink="http://www.w3.org/1999/xlink" x="0px" y="0px"
	 viewBox="0 0 65 65" enable-background="new 0 0 65 65" xml:space="preserve">
<g id="Layer_1">
	<path fill="#FFFFFF" d="M56.1,13.5c-1.7,0.8-3.6,1.3-5.6,1.5c2-1.2,3.5-3.1,4.3-5.4c-1.9,1.1-3.9,1.9-6.2,2.4
		C46.9,10.2,44.4,9,41.6,9c-5.4,0-9.7,4.3-9.7,9.7c0,0.8,0.1,1.5,0.3,2.2c-8.1-0.4-15.2-4.3-20-10.1c-0.8,1.4-1.3,3.1-1.3,4.9
		c0,3.4,1.7,6.3,4.3,8.1c-1.6-0.1-3.1-0.5-4.4-1.2c0,0,0,0.1,0,0.1c0,4.7,3.3,8.6,7.8,9.5c-0.8,0.2-1.7,0.3-2.6,0.3
		c-0.6,0-1.2-0.1-1.8-0.2c1.2,3.9,4.8,6.7,9.1,6.7c-3.3,2.6-7.5,4.1-12,4.1c-0.8,0-1.6,0-2.3-0.1c4.3,2.7,9.4,4.4,14.9,4.4
		c17.8,0,27.6-14.8,27.6-27.6c0-0.4,0-0.8,0-1.3C53.2,17.2,54.8,15.5,56.1,13.5z"/>
</g>
<g id="behance">
</g>
</svg>
