<?xml version="1.0" encoding="utf-8"?>
<!-- Generator: Adobe Illustrator 18.1.1, SVG Export Plug-In . SVG Version: 6.00 Build 0)  -->
<!DOCTYPE svg PUBLIC "-//W3C//DTD SVG 1.1//EN" "http://www.w3.org/Graphics/SVG/1.1/DTD/svg11.dtd">
<svg version="1.1" xmlns="http://www.w3.org/2000/svg" xmlns:xlink="http://www.w3.org/1999/xlink" x="0px" y="0px"
	 viewBox="0 0 65 65" enable-background="new 0 0 65 65" xml:space="preserve">
<g id="Layer_1">
	<g>
		<path fill="#FFFFFF" d="M11,28.2c0,8.5,4.9,15.9,12.1,19.4L12.9,19.4C11.7,22.1,11,25.1,11,28.2z M47,27.1c0-2.7-1-4.5-1.8-5.9
			c-1.1-1.8-2.1-3.3-2.1-5c0-2,1.5-3.8,3.6-3.8c0.1,0,0.2,0,0.3,0c-3.8-3.5-8.9-5.6-14.5-5.6c-7.5,0-14.1,3.9-18,9.7
			c0.5,0,1,0,1.4,0c2.2,0,5.7-0.3,5.7-0.3c1.2-0.1,1.3,1.6,0.1,1.8c0,0-1.2,0.1-2.5,0.2l7.8,23.3l4.7-14.1l-3.4-9.2
			c-1.2-0.1-2.3-0.2-2.3-0.2c-1.2-0.1-1-1.8,0.1-1.8c0,0,3.6,0.3,5.7,0.3c2.2,0,5.7-0.3,5.7-0.3c1.2-0.1,1.3,1.6,0.1,1.8
			c0,0-1.2,0.1-2.5,0.2l7.8,23.1l2.1-7.2C46.5,31.2,47,28.9,47,27.1z M32.9,30.1l-6.5,18.7c1.9,0.6,4,0.9,6.1,0.9
			c2.5,0,4.9-0.4,7.1-1.2c-0.1-0.1-0.1-0.2-0.2-0.3L32.9,30.1z M51.4,17.9c0.1,0.7,0.1,1.4,0.1,2.2c0,2.2-0.4,4.6-1.6,7.7l-6.6,19
			C49.7,43,54,36.1,54,28.2C54,24.4,53,20.9,51.4,17.9z"/>
		<g>
			<path fill="#FFFFFF" stroke="#FFFFFF" stroke-miterlimit="10" d="M7.4,28.2c0,13.8,11.2,25.1,25.1,25.1
				c13.8,0,25.1-11.2,25.1-25.1c0-13.8-11.2-25.1-25.1-25.1C18.7,3.1,7.4,14.3,7.4,28.2z M8.6,28.2C8.6,15,19.3,4.3,32.5,4.3
				c13.2,0,23.9,10.7,23.9,23.9c0,13.2-10.7,23.9-23.9,23.9C19.3,52.1,8.6,41.4,8.6,28.2z"/>
		</g>
	</g>
</g>
<g id="behance">
</g>
</svg>
