<?xml version="1.0" encoding="utf-8"?>
<!-- Generator: Adobe Illustrator 18.1.1, SVG Export Plug-In . SVG Version: 6.00 Build 0)  -->
<!DOCTYPE svg PUBLIC "-//W3C//DTD SVG 1.1//EN" "http://www.w3.org/Graphics/SVG/1.1/DTD/svg11.dtd">
<svg version="1.1" id="Layer_1" xmlns="http://www.w3.org/2000/svg" xmlns:xlink="http://www.w3.org/1999/xlink" x="0px" y="0px"
	 viewBox="0 0 105 105" enable-background="new 0 0 105 105" xml:space="preserve">
<linearGradient id="SVGID_1_" gradientUnits="userSpaceOnUse" x1="52.5" y1="8.0987" x2="52.5" y2="101.1424">
	<stop  offset="0" style="stop-color:#6061B1"/>
	<stop  offset="0.9898" style="stop-color:#222373"/>
</linearGradient>
<circle fill="url(#SVGID_1_)" cx="52.5" cy="52.5" r="52.5"/>
<g>
	<path fill="#FFFFFF" d="M15.1,52.5c0,14.8,8.6,27.6,21.1,33.7L18.3,37.3C16.3,41.9,15.1,47.1,15.1,52.5z M77.8,50.6
		c0-4.6-1.7-7.8-3.1-10.3c-1.9-3.1-3.7-5.7-3.7-8.8c0-3.4,2.6-6.6,6.3-6.6c0.2,0,0.3,0,0.5,0c-6.7-6.1-15.5-9.8-25.3-9.8
		c-13.1,0-24.6,6.7-31.3,16.9c0.9,0,1.7,0,2.4,0c3.9,0,10-0.5,10-0.5c2-0.1,2.3,2.8,0.2,3.1c0,0-2,0.2-4.3,0.4l13.6,40.5l8.2-24.6
		l-5.8-16c-2-0.1-3.9-0.4-3.9-0.4c-2-0.1-1.8-3.2,0.2-3.1c0,0,6.2,0.5,9.9,0.5c3.9,0,10-0.5,10-0.5c2-0.1,2.3,2.8,0.2,3.1
		c0,0-2,0.2-4.3,0.4l13.5,40.2l3.7-12.5C76.8,57.8,77.8,53.8,77.8,50.6z M53.2,55.8L41.9,88.4c3.4,1,6.9,1.5,10.6,1.5
		c4.4,0,8.5-0.8,12.4-2.1c-0.1-0.2-0.2-0.3-0.3-0.5L53.2,55.8z M85.3,34.6c0.2,1.2,0.3,2.5,0.3,3.8c0,3.8-0.7,8.1-2.8,13.4l-11.4,33
		c11.1-6.5,18.6-18.5,18.6-32.3C89.9,46,88.2,39.9,85.3,34.6z"/>
	<g>
		<path fill="#FFFFFF" d="M8.9,52.5c0,24,19.6,43.6,43.6,43.6c24,0,43.6-19.6,43.6-43.6c0-24-19.6-43.6-43.6-43.6
			C28.5,8.9,8.9,28.5,8.9,52.5z M10.9,52.5c0-22.9,18.7-41.6,41.6-41.6c22.9,0,41.6,18.7,41.6,41.6c0,22.9-18.7,41.6-41.6,41.6
			C29.6,94.1,10.9,75.4,10.9,52.5z"/>
	</g>
</g>
<g>
</g>
<g>
</g>
<g>
</g>
<g>
</g>
<g>
</g>
<g>
</g>
<g>
</g>
<g>
</g>
<g>
</g>
<g>
</g>
<g>
</g>
<g>
</g>
<g>
</g>
<g>
</g>
<g>
</g>
</svg>
